<?xml version="1.0" encoding="UTF-8"?>
<!DOCTYPE svg PUBLIC "-//W3C//DTD SVG 1.1//EN" "http://www.w3.org/Graphics/SVG/1.1/DTD/svg11.dtd">
<!-- Creator: CorelDRAW 2019 (64-Bit) -->
<svg xmlns="http://www.w3.org/2000/svg" xml:space="preserve" width="369px" height="90px" version="1.1" style="shape-rendering:geometricPrecision; text-rendering:geometricPrecision; image-rendering:optimizeQuality; fill-rule:evenodd; clip-rule:evenodd"
viewBox="0 0 33.28 8.13"
 xmlns:xlink="http://www.w3.org/1999/xlink"
 xmlns:xodm="http://www.corel.com/coreldraw/odm/2003">
 <defs>
  <style type="text/css">
   <![CDATA[
    .fil0 {fill:#FEFEFE;fill-rule:nonzero}
   ]]>
  </style>
 </defs>
 <g id="Camada_x0020_1">
  <metadata id="CorelCorpID_0Corel-Layer"/>
  <g id="_2636109287440">
   <g>
    <path class="fil0" d="M2 8.11l-0.45 0 0 -1.28 0.45 0c0.4,0 0.68,0.28 0.68,0.64 0,0.36 -0.28,0.64 -0.68,0.64zm0 -1.15l0 0 -0.3 0 0 1.02 0.3 0c0.32,0 0.53,-0.22 0.53,-0.51 0,-0.28 -0.21,-0.51 -0.53,-0.51z"/>
    <polygon class="fil0" points="3.98,6.83 3.98,8.11 3.83,8.11 3.83,6.83 "/>
    <path class="fil0" d="M5.78 8.13c-0.4,0 -0.65,-0.29 -0.65,-0.66 0,-0.35 0.26,-0.66 0.65,-0.66 0.21,0 0.34,0.06 0.47,0.17l-0.09 0.11c-0.1,-0.09 -0.21,-0.15 -0.39,-0.15 -0.28,0 -0.49,0.24 -0.49,0.53 0,0.3 0.2,0.53 0.51,0.53 0.15,0 0.28,-0.06 0.37,-0.13l0 -0.31 -0.39 0 0 -0.13 0.53 0 0 0.51c-0.12,0.1 -0.3,0.19 -0.52,0.19z"/>
    <polygon class="fil0" points="7.62,6.83 7.62,8.11 7.47,8.11 7.47,6.83 "/>
    <polygon class="fil0" points="9.32,8.11 9.17,8.11 9.17,6.96 8.74,6.96 8.74,6.83 9.74,6.83 9.74,6.96 9.32,6.96 "/>
    <path class="fil0" d="M11.88 8.11l-0.15 0 -0.15 -0.34 -0.7 0 -0.15 0.34 -0.15 0 0.58 -1.29 0.14 0 0.58 1.29zm-0.65 -1.12l0 0 -0.29 0.65 0.58 0 -0.29 -0.65z"/>
    <polygon class="fil0" points="12.97,6.83 13.12,6.83 13.12,7.98 13.84,7.98 13.84,8.11 12.97,8.11 "/>
    <path class="fil0" d="M17.25 8.13l-0.2 -0.2c-0.12,0.12 -0.25,0.2 -0.42,0.2 -0.23,0 -0.4,-0.15 -0.4,-0.36 0,-0.17 0.11,-0.3 0.31,-0.37 -0.09,-0.11 -0.13,-0.18 -0.13,-0.29 0,-0.17 0.14,-0.3 0.34,-0.3 0.18,0 0.31,0.13 0.31,0.29 0,0.17 -0.12,0.27 -0.3,0.33l0.29 0.3c0.06,-0.08 0.11,-0.18 0.15,-0.28l0.12 0.05c-0.06,0.12 -0.11,0.23 -0.18,0.32l0.22 0.23 -0.11 0.08zm-0.63 -0.64l0 0c-0.17,0.06 -0.24,0.16 -0.24,0.27 0,0.14 0.11,0.24 0.26,0.24 0.12,0 0.23,-0.06 0.32,-0.16l-0.34 -0.35zm0.12 -0.56l0 0c-0.11,0 -0.19,0.08 -0.19,0.18 0,0.08 0.03,0.14 0.13,0.24 0.16,-0.05 0.24,-0.13 0.24,-0.24 0,-0.11 -0.07,-0.18 -0.18,-0.18z"/>
    <path class="fil0" d="M20.27 8.11l-0.44 0 0 -1.28 0.44 0c0.4,0 0.68,0.28 0.68,0.64 0,0.36 -0.28,0.64 -0.68,0.64zm0 -1.15l0 0 -0.3 0 0 1.02 0.3 0c0.32,0 0.53,-0.22 0.53,-0.51 0,-0.28 -0.21,-0.51 -0.53,-0.51z"/>
    <polygon class="fil0" points="23.02,6.96 22.24,6.96 22.24,7.4 22.93,7.4 22.93,7.53 22.24,7.53 22.24,7.98 23.02,7.98 23.02,8.11 22.09,8.11 22.09,6.83 23.02,6.83 "/>
    <path class="fil0" d="M24.61 7.4c0.29,0.06 0.42,0.17 0.42,0.36 0,0.22 -0.18,0.37 -0.44,0.37 -0.2,0 -0.37,-0.07 -0.52,-0.21l0.09 -0.1c0.13,0.12 0.26,0.18 0.44,0.18 0.17,0 0.28,-0.09 0.28,-0.22 0,-0.12 -0.06,-0.19 -0.33,-0.25 -0.29,-0.06 -0.43,-0.16 -0.43,-0.37 0,-0.2 0.18,-0.35 0.42,-0.35 0.19,0 0.32,0.06 0.45,0.16l-0.08 0.11c-0.12,-0.1 -0.24,-0.14 -0.37,-0.14 -0.17,0 -0.27,0.09 -0.27,0.21 0,0.12 0.06,0.19 0.34,0.25z"/>
    <polygon class="fil0" points="26.32,6.83 26.32,8.11 26.18,8.11 26.18,6.83 "/>
    <path class="fil0" d="M28.13 8.13c-0.41,0 -0.65,-0.29 -0.65,-0.66 0,-0.35 0.25,-0.66 0.64,-0.66 0.21,0 0.35,0.06 0.47,0.17l-0.09 0.11c-0.1,-0.09 -0.21,-0.15 -0.39,-0.15 -0.28,0 -0.48,0.24 -0.48,0.53 0,0.3 0.19,0.53 0.5,0.53 0.15,0 0.28,-0.06 0.37,-0.13l0 -0.31 -0.39 0 0 -0.13 0.53 0 0 0.51c-0.12,0.1 -0.3,0.19 -0.51,0.19z"/>
    <polygon class="fil0" points="30.74,6.83 30.88,6.83 30.88,8.11 30.77,8.11 29.94,7.06 29.94,8.11 29.8,8.11 29.8,6.83 29.94,6.83 30.74,7.85 "/>
   </g>
   <g>
    <g>
     <path class="fil0" d="M4.85 4.44c0,0.18 -0.15,0.39 -0.45,0.63 -0.29,0.23 -0.84,0.35 -1.64,0.35 -0.8,0 -1.46,-0.25 -1.98,-0.75 -0.52,-0.5 -0.78,-1.15 -0.78,-1.96 0,-0.8 0.26,-1.46 0.77,-1.96 0.52,-0.5 1.18,-0.75 2,-0.75 0.81,0 1.36,0.12 1.65,0.35 0.29,0.24 0.43,0.45 0.43,0.63 0,0.19 -0.06,0.36 -0.19,0.5 -0.12,0.15 -0.26,0.22 -0.4,0.22 -0.15,0 -0.39,-0.06 -0.71,-0.17 -0.32,-0.11 -0.56,-0.17 -0.72,-0.17 -0.87,0 -1.3,0.45 -1.3,1.35 0,0.9 0.43,1.35 1.3,1.35 0.16,0 0.4,-0.06 0.72,-0.17 0.32,-0.11 0.56,-0.17 0.71,-0.17 0.14,0 0.28,0.07 0.4,0.22 0.13,0.14 0.19,0.31 0.19,0.5z"/>
     <path class="fil0" d="M8.56 5.37l-1.96 0c-0.52,0 -0.77,-0.22 -0.77,-0.67l0 -4.55 0.77 0c0.51,0 0.76,0.23 0.76,0.68l0 3.32 1.68 0 0 0.61c0,0.41 -0.16,0.61 -0.48,0.61z"/>
     <path class="fil0" d="M11.55 4.7c0,0.45 -0.25,0.67 -0.76,0.67l-0.77 0 0 -4.54c0,-0.45 0.26,-0.68 0.77,-0.68l0.76 0 0 4.55z"/>
     <path class="fil0" d="M17.32 4.44c0,0.18 -0.15,0.39 -0.44,0.63 -0.3,0.23 -0.85,0.35 -1.65,0.35 -0.8,0 -1.46,-0.25 -1.98,-0.75 -0.52,-0.5 -0.78,-1.15 -0.78,-1.96 0,-0.8 0.26,-1.46 0.78,-1.96 0.51,-0.5 1.18,-0.75 1.99,-0.75 0.81,0 1.36,0.12 1.65,0.35 0.29,0.24 0.43,0.45 0.43,0.63 0,0.19 -0.06,0.36 -0.18,0.5 -0.13,0.15 -0.26,0.22 -0.41,0.22 -0.15,0 -0.38,-0.06 -0.7,-0.17 -0.33,-0.11 -0.57,-0.17 -0.73,-0.17 -0.86,0 -1.29,0.45 -1.29,1.35 0,0.9 0.43,1.35 1.29,1.35 0.16,0 0.4,-0.06 0.73,-0.17 0.32,-0.11 0.55,-0.17 0.7,-0.17 0.15,0 0.28,0.07 0.41,0.22 0.12,0.14 0.18,0.31 0.18,0.5z"/>
     <path class="fil0" d="M21.25 2.75l1.22 1.4c0.18,0.2 0.27,0.39 0.25,0.57 -0.01,0.18 -0.1,0.35 -0.27,0.5 -0.17,0.15 -0.36,0.22 -0.57,0.19 -0.21,-0.02 -0.4,-0.14 -0.57,-0.35l-1.48 -1.65 0 1.29c0,0.45 -0.25,0.67 -0.76,0.67l-0.77 0 0 -5.22 1.53 0 0 1.95 1.48 -1.64c0.17,-0.21 0.36,-0.33 0.57,-0.36 0.2,-0.02 0.39,0.04 0.56,0.2 0.17,0.15 0.27,0.32 0.28,0.5 0.01,0.18 -0.07,0.37 -0.25,0.57l-1.22 1.38z"/>
    </g>
    <g>
     <path class="fil0" d="M29.26 2.17l0 2.12c0,0.32 -0.17,0.59 -0.51,0.81 -0.34,0.21 -0.9,0.32 -1.68,0.32 -0.77,0 -1.42,-0.25 -1.94,-0.75 -0.52,-0.5 -0.77,-1.15 -0.77,-1.96 0,-0.8 0.25,-1.46 0.77,-1.96 0.51,-0.5 1.13,-0.75 1.86,-0.75 0.72,0 1.27,0.11 1.65,0.34 0.38,0.23 0.57,0.44 0.57,0.64 0.01,0.2 -0.06,0.37 -0.19,0.53 -0.14,0.16 -0.27,0.23 -0.4,0.23 -0.13,0 -0.32,-0.06 -0.57,-0.18 -0.24,-0.13 -0.57,-0.19 -0.99,-0.2 -0.41,0 -0.72,0.12 -0.92,0.38 -0.2,0.26 -0.3,0.59 -0.3,0.98 0,0.39 0.11,0.71 0.33,0.96 0.22,0.25 0.52,0.38 0.88,0.37 0.37,0 0.6,-0.06 0.69,-0.16l0 -0.42 -0.24 0c-0.46,0 -0.69,-0.21 -0.69,-0.65l0 -0.65 2.45 0z"/>
     <path class="fil0" d="M33.28 4.15l0 0.61c0,0.4 -0.17,0.61 -0.49,0.61l-3.2 0 0 -0.59c0,-0.4 0.12,-0.67 0.38,-0.81 1.09,-0.84 1.72,-1.49 1.89,-1.95 0.16,-0.46 0.07,-0.71 -0.27,-0.75 -0.35,-0.04 -0.65,0 -0.91,0.14 -0.26,0.13 -0.44,0.2 -0.54,0.2 -0.1,0 -0.21,-0.06 -0.33,-0.18 -0.12,-0.12 -0.18,-0.31 -0.18,-0.57 0,-0.25 0.2,-0.46 0.6,-0.61 0.4,-0.15 0.84,-0.23 1.32,-0.23 0.48,0 0.89,0.15 1.22,0.43 0.33,0.29 0.46,0.76 0.39,1.41 -0.06,0.65 -0.59,1.41 -1.59,2.29l1.71 0z"/>
    </g>
   </g>
  </g>
 </g>
</svg>
