<?xml version="1.0" encoding="UTF-8"?>
<!DOCTYPE svg PUBLIC "-//W3C//DTD SVG 1.1//EN" "http://www.w3.org/Graphics/SVG/1.1/DTD/svg11.dtd">
<!-- Creator: CorelDRAW 2019 (64-Bit) -->
<svg xmlns="http://www.w3.org/2000/svg" xml:space="preserve" width="1217px" height="373px" version="1.1" style="shape-rendering:geometricPrecision; text-rendering:geometricPrecision; image-rendering:optimizeQuality; fill-rule:evenodd; clip-rule:evenodd"
viewBox="0 0 306.4 94.03"
 xmlns:xlink="http://www.w3.org/1999/xlink"
 xmlns:xodm="http://www.corel.com/coreldraw/odm/2003"
 enable-background="new 0 0 683.117 212.057">
 <defs>
  <style type="text/css">
   <![CDATA[
    .fil0 {fill:#FEFEFE;fill-rule:nonzero}
   ]]>
  </style>
 </defs>
 <g id="Camada_x0020_1">
  <metadata id="CorelCorpID_0Corel-Layer"/>
  <g id="_2636113949264">
   <g>
    <g>
     <g>
      <path class="fil0" d="M0 42.69l3.21 17.83 1.1 0.19c31.51,3.95 51.78,-3.18 62.58,-17.41 3.81,-4.88 2.15,-12.62 2.15,-12.62l-0.98 -5.68c-10.64,16.45 -36.33,24.24 -68.06,17.69z"/>
      <path class="fil0" d="M13.37 15.12c-2.77,3.51 -2.03,7.57 -2.03,7.57l1.06 7.4c8.47,-13.2 28.76,-19.59 53.97,-14.83l-2.59 -14.47c-25.36,-3.03 -41.69,2.8 -50.41,14.33z"/>
     </g>
     <g>
      <polygon class="fil0" points="93.59,65.91 92.38,65.91 92.38,58.29 92.35,58.29 91.66,59.94 88.52,66.05 88.49,66.05 85.31,59.86 84.67,58.29 84.65,58.29 84.65,65.91 83.43,65.91 83.43,55.56 84.52,55.56 87.99,62.46 88.5,63.67 88.53,63.67 89.04,62.46 92.5,55.56 93.59,55.56 93.59,65.91 "/>
      <path class="fil0" d="M101.91 60.67l0 5.24 -1.18 0 0 -0.72 -0.02 0c-0.36,0.32 -0.77,0.54 -1.22,0.67 -0.46,0.12 -0.92,0.19 -1.39,0.19 -0.41,0 -0.81,-0.05 -1.2,-0.13 -0.39,-0.08 -0.74,-0.22 -1.05,-0.41 -0.31,-0.2 -0.55,-0.45 -0.75,-0.77 -0.19,-0.32 -0.28,-0.71 -0.28,-1.17 0,-0.42 0.08,-0.77 0.24,-1.07 0.16,-0.29 0.38,-0.54 0.66,-0.73 0.27,-0.2 0.59,-0.35 0.94,-0.46 0.36,-0.11 0.72,-0.19 1.1,-0.24 0.38,-0.06 0.76,-0.09 1.15,-0.1 0.38,-0.01 0.73,-0.02 1.06,-0.02 0.14,0 0.31,0.01 0.49,0.01 0.19,0.01 0.32,0.02 0.4,0.04l-0.13 -0.14 0 -0.18c0,-0.34 -0.06,-0.63 -0.18,-0.86 -0.12,-0.23 -0.28,-0.42 -0.48,-0.57 -0.2,-0.14 -0.43,-0.25 -0.7,-0.31 -0.27,-0.05 -0.55,-0.08 -0.85,-0.08 -0.22,0 -0.44,0.01 -0.67,0.03 -0.22,0.03 -0.45,0.07 -0.67,0.14 -0.22,0.06 -0.43,0.15 -0.64,0.25 -0.2,0.1 -0.39,0.23 -0.55,0.38l-0.82 -0.8c0.5,-0.42 1.02,-0.71 1.57,-0.87 0.55,-0.16 1.14,-0.25 1.78,-0.25 0.43,0 0.85,0.05 1.25,0.15 0.41,0.09 0.77,0.25 1.09,0.47 0.31,0.23 0.57,0.53 0.76,0.9 0.19,0.38 0.29,0.85 0.29,1.41zm-1.05 1.35c-0.08,0 -0.2,-0.01 -0.37,-0.02 -0.17,-0.01 -0.32,-0.01 -0.45,-0.01 -0.24,0 -0.5,0 -0.79,0 -0.29,0.01 -0.58,0.02 -0.88,0.05 -0.3,0.02 -0.59,0.07 -0.88,0.13 -0.28,0.06 -0.54,0.16 -0.76,0.28 -0.22,0.12 -0.4,0.27 -0.53,0.45 -0.14,0.18 -0.21,0.41 -0.21,0.67 0,0.27 0.07,0.5 0.21,0.67 0.13,0.18 0.31,0.31 0.52,0.42 0.21,0.1 0.44,0.17 0.69,0.21 0.25,0.05 0.48,0.07 0.7,0.07 0.21,0 0.46,-0.02 0.76,-0.05 0.29,-0.04 0.58,-0.11 0.86,-0.21 0.28,-0.1 0.51,-0.24 0.71,-0.42 0.19,-0.18 0.29,-0.41 0.29,-0.7l0 -1.42 0.13 -0.12z"/>
      <path class="fil0" d="M104.88 55.94c0,0.25 -0.06,0.45 -0.2,0.61 -0.13,0.16 -0.32,0.24 -0.57,0.24 -0.26,0 -0.45,-0.08 -0.58,-0.24 -0.13,-0.16 -0.19,-0.36 -0.19,-0.61 0,-0.24 0.07,-0.45 0.2,-0.6 0.13,-0.16 0.32,-0.24 0.57,-0.24 0.26,0 0.45,0.08 0.58,0.24 0.13,0.15 0.19,0.36 0.19,0.6zm-0.19 9.97l-1.17 0 0 -8.05 1.17 0 0 8.05z"/>
      <path class="fil0" d="M112.61 63.7c0,0.3 -0.06,0.58 -0.17,0.87 -0.12,0.28 -0.31,0.53 -0.56,0.74 -0.25,0.22 -0.58,0.4 -0.99,0.53 -0.41,0.14 -0.91,0.21 -1.48,0.21 -0.64,0 -1.27,-0.11 -1.89,-0.32 -0.62,-0.21 -1.15,-0.57 -1.6,-1.06l0.87 -0.87c0.45,0.41 0.87,0.7 1.27,0.87 0.39,0.17 0.83,0.25 1.31,0.25 0.71,0 1.24,-0.11 1.57,-0.34 0.33,-0.23 0.5,-0.51 0.5,-0.83 0,-0.13 -0.02,-0.25 -0.07,-0.36 -0.04,-0.11 -0.11,-0.21 -0.22,-0.31 -0.11,-0.09 -0.25,-0.18 -0.43,-0.26 -0.19,-0.08 -0.42,-0.16 -0.69,-0.23 -0.04,-0.01 -0.13,-0.04 -0.27,-0.08 -0.14,-0.04 -0.29,-0.09 -0.45,-0.13 -0.16,-0.05 -0.3,-0.1 -0.44,-0.13 -0.14,-0.04 -0.23,-0.07 -0.27,-0.09 -0.36,-0.1 -0.68,-0.21 -0.98,-0.34 -0.3,-0.12 -0.56,-0.26 -0.78,-0.44 -0.21,-0.17 -0.38,-0.37 -0.51,-0.6 -0.12,-0.23 -0.18,-0.49 -0.18,-0.8 0,-0.29 0.06,-0.57 0.19,-0.84 0.12,-0.28 0.32,-0.52 0.57,-0.73 0.26,-0.21 0.59,-0.37 0.99,-0.49 0.4,-0.13 0.87,-0.19 1.4,-0.19 0.64,0 1.23,0.11 1.75,0.33 0.53,0.21 0.99,0.54 1.38,0.97l-0.86 0.87c-0.28,-0.33 -0.6,-0.59 -0.97,-0.77 -0.37,-0.18 -0.8,-0.28 -1.3,-0.28 -0.35,0 -0.65,0.04 -0.9,0.1 -0.25,0.06 -0.45,0.15 -0.61,0.25 -0.16,0.1 -0.27,0.22 -0.35,0.35 -0.08,0.13 -0.12,0.26 -0.12,0.39 0,0.25 0.14,0.46 0.4,0.63 0.26,0.18 0.72,0.35 1.38,0.53 0.04,0.02 0.12,0.05 0.25,0.08 0.12,0.03 0.25,0.07 0.39,0.12 0.14,0.05 0.28,0.09 0.4,0.13 0.12,0.04 0.21,0.06 0.25,0.07 0.8,0.22 1.37,0.51 1.71,0.87 0.34,0.37 0.51,0.81 0.51,1.33z"/>
      <path class="fil0" d="M121.02 58.93l-2.56 0 0.07 0.13 0 6.85 -1.18 0 0 -6.85 0.07 -0.13 -1.03 0 0 -1.07 1.03 0 -0.07 -0.13 0 -0.1c0,-0.78 0.23,-1.39 0.67,-1.84 0.45,-0.45 1.08,-0.68 1.9,-0.68 0.18,0 0.37,0.02 0.57,0.06 0.21,0.04 0.38,0.09 0.53,0.15l0 1.09c-0.14,-0.05 -0.31,-0.1 -0.53,-0.14 -0.22,-0.04 -0.4,-0.06 -0.54,-0.06 -0.49,0 -0.85,0.13 -1.08,0.38 -0.23,0.26 -0.34,0.61 -0.34,1.06l0 0.08 -0.07 0.13 2.56 0 0 1.07 0 0z"/>
      <path class="fil0" d="M128.76 61.88c0,0.6 -0.08,1.15 -0.24,1.66 -0.16,0.5 -0.4,0.94 -0.72,1.31 -0.32,0.37 -0.72,0.66 -1.19,0.87 -0.48,0.21 -1.03,0.31 -1.66,0.31 -0.63,0 -1.18,-0.1 -1.66,-0.3 -0.48,-0.21 -0.87,-0.49 -1.19,-0.86 -0.31,-0.37 -0.55,-0.81 -0.71,-1.32 -0.15,-0.51 -0.23,-1.06 -0.23,-1.67 0,-0.59 0.08,-1.15 0.23,-1.66 0.16,-0.51 0.4,-0.95 0.71,-1.31 0.32,-0.37 0.71,-0.66 1.19,-0.87 0.48,-0.21 1.03,-0.31 1.66,-0.31 0.64,0 1.2,0.1 1.67,0.31 0.47,0.2 0.87,0.49 1.19,0.85 0.32,0.37 0.56,0.81 0.71,1.32 0.16,0.51 0.24,1.07 0.24,1.67zm-1.17 0c0,-0.42 -0.06,-0.82 -0.16,-1.19 -0.1,-0.36 -0.26,-0.68 -0.47,-0.95 -0.21,-0.28 -0.49,-0.49 -0.82,-0.65 -0.33,-0.16 -0.73,-0.23 -1.19,-0.23 -0.46,0 -0.85,0.07 -1.19,0.23 -0.33,0.15 -0.6,0.36 -0.81,0.63 -0.22,0.28 -0.37,0.6 -0.47,0.97 -0.1,0.37 -0.15,0.77 -0.15,1.19 0,0.43 0.05,0.83 0.16,1.19 0.1,0.37 0.26,0.69 0.47,0.96 0.21,0.27 0.49,0.49 0.82,0.65 0.33,0.15 0.73,0.23 1.19,0.23 0.46,0 0.85,-0.08 1.18,-0.23 0.34,-0.16 0.61,-0.38 0.82,-0.65 0.22,-0.27 0.37,-0.59 0.47,-0.96 0.1,-0.36 0.15,-0.76 0.15,-1.19z"/>
      <path class="fil0" d="M134.01 59.02l-0.38 0c-0.29,0 -0.58,0.05 -0.88,0.16 -0.29,0.1 -0.56,0.26 -0.79,0.49 -0.23,0.23 -0.43,0.53 -0.57,0.9 -0.15,0.37 -0.23,0.83 -0.23,1.36l0 3.98 -1.17 0 0 -8.05 1.17 0 0 1.39 0.03 0c0.11,-0.24 0.26,-0.46 0.44,-0.64 0.19,-0.19 0.4,-0.34 0.62,-0.46 0.23,-0.13 0.47,-0.22 0.73,-0.28 0.26,-0.07 0.52,-0.1 0.78,-0.1l0.25 0 0 1.25 0 0z"/>
      <path class="fil0" d="M139.52 65.14c-0.73,0.6 -1.5,0.89 -2.33,0.89 -0.67,0 -1.21,-0.21 -1.61,-0.63 -0.4,-0.43 -0.6,-1.04 -0.6,-1.84l0 -4.5 0.07 -0.13 -1.03 0 0 -1.07 1.03 0 -0.07 -0.13 0 -1.28 1.18 -0.64 0 1.92 -0.07 0.13 2.56 0 0 1.07 -2.56 0 0.07 0.13 0 4.45c0,0.47 0.1,0.83 0.29,1.06 0.2,0.24 0.47,0.35 0.81,0.35 0.28,0 0.53,-0.04 0.76,-0.14 0.22,-0.09 0.45,-0.24 0.67,-0.46l0.83 0.82z"/>
      <path class="fil0" d="M147.32 61.95c0,0.09 0,0.17 0,0.24 -0.01,0.07 -0.01,0.14 -0.02,0.23l-6.51 0 0.14 0.13c0.11,0.73 0.38,1.31 0.81,1.73 0.43,0.42 1.06,0.63 1.88,0.63 0.44,0 0.85,-0.07 1.22,-0.22 0.37,-0.15 0.7,-0.37 0.99,-0.65l0.83 0.82c-0.39,0.38 -0.85,0.68 -1.36,0.87 -0.52,0.2 -1.08,0.3 -1.7,0.3 -0.66,0 -1.24,-0.1 -1.73,-0.31 -0.49,-0.21 -0.89,-0.49 -1.21,-0.85 -0.32,-0.37 -0.56,-0.8 -0.71,-1.29 -0.15,-0.5 -0.23,-1.05 -0.23,-1.63 0,-0.62 0.09,-1.18 0.26,-1.7 0.17,-0.52 0.42,-0.97 0.74,-1.34 0.33,-0.37 0.73,-0.66 1.21,-0.87 0.48,-0.2 1.02,-0.31 1.62,-0.31 0.64,0 1.2,0.11 1.66,0.32 0.47,0.21 0.86,0.51 1.18,0.88 0.31,0.38 0.55,0.82 0.7,1.34 0.16,0.51 0.23,1.07 0.23,1.68zm-1.07 -0.6l-0.14 -0.13c-0.05,-0.34 -0.14,-0.66 -0.26,-0.95 -0.13,-0.29 -0.29,-0.54 -0.5,-0.75 -0.21,-0.21 -0.46,-0.38 -0.76,-0.49 -0.3,-0.12 -0.64,-0.17 -1.04,-0.17 -0.4,0 -0.75,0.05 -1.05,0.17 -0.3,0.12 -0.56,0.29 -0.77,0.5 -0.22,0.22 -0.39,0.47 -0.51,0.76 -0.13,0.29 -0.22,0.6 -0.27,0.93l-0.14 0.13 5.44 0z"/>
      <path class="fil0" d="M149.38 65.36c0,0.12 -0.03,0.26 -0.09,0.42l-0.72 1.66 -0.39 -0.18 0.48 -1.16 0.11 -0.08c-0.21,0.01 -0.36,-0.05 -0.46,-0.19 -0.1,-0.14 -0.14,-0.29 -0.14,-0.47 0,-0.21 0.05,-0.38 0.16,-0.5 0.1,-0.12 0.25,-0.18 0.45,-0.18 0.2,0 0.34,0.06 0.45,0.18 0.1,0.12 0.15,0.28 0.15,0.5z"/>
      <path class="fil0" d="M165.37 61.18l-0.01 4.73 -1.81 0 0 -4.45c0,-0.35 -0.02,-0.66 -0.05,-0.92 -0.03,-0.27 -0.09,-0.5 -0.19,-0.68 -0.1,-0.17 -0.23,-0.31 -0.41,-0.4 -0.18,-0.09 -0.41,-0.13 -0.7,-0.13 -0.26,0 -0.48,0.04 -0.68,0.14 -0.2,0.09 -0.36,0.22 -0.49,0.38 -0.13,0.16 -0.22,0.35 -0.29,0.57 -0.06,0.22 -0.09,0.45 -0.09,0.7l0 4.79 -1.82 0 0 -4.73c0,-0.31 -0.02,-0.58 -0.05,-0.81 -0.04,-0.23 -0.11,-0.42 -0.21,-0.57 -0.1,-0.15 -0.23,-0.27 -0.4,-0.35 -0.18,-0.08 -0.4,-0.12 -0.67,-0.12 -0.22,0 -0.42,0.04 -0.61,0.12 -0.18,0.09 -0.35,0.21 -0.49,0.37 -0.14,0.16 -0.25,0.35 -0.33,0.57 -0.08,0.22 -0.12,0.47 -0.12,0.74l0 4.78 -1.82 0 0 -8.06 1.82 0 0 0.61 0.03 0c0.23,-0.23 0.52,-0.41 0.86,-0.54 0.34,-0.13 0.68,-0.19 1.02,-0.19 0.49,0 0.93,0.12 1.32,0.36 0.39,0.25 0.68,0.56 0.87,0.93l0.03 0c0.11,-0.18 0.25,-0.35 0.42,-0.5 0.17,-0.16 0.36,-0.3 0.56,-0.41 0.2,-0.12 0.41,-0.21 0.64,-0.28 0.23,-0.07 0.47,-0.1 0.72,-0.1 1,0 1.74,0.3 2.22,0.91 0.49,0.61 0.73,1.46 0.73,2.54z"/>
      <path class="fil0" d="M174.25 60.76l0 5.16 -1.81 0 0 -0.51 -0.03 0c-0.33,0.23 -0.69,0.39 -1.08,0.49 -0.39,0.1 -0.8,0.15 -1.2,0.15 -0.41,0 -0.83,-0.05 -1.26,-0.13 -0.43,-0.08 -0.82,-0.23 -1.16,-0.42 -0.35,-0.2 -0.63,-0.46 -0.85,-0.79 -0.22,-0.34 -0.34,-0.75 -0.34,-1.26 0,-0.41 0.09,-0.77 0.27,-1.07 0.17,-0.31 0.4,-0.56 0.69,-0.76 0.28,-0.2 0.61,-0.36 0.99,-0.48 0.38,-0.12 0.77,-0.21 1.18,-0.27 0.4,-0.07 0.81,-0.11 1.21,-0.12 0.41,-0.02 0.78,-0.03 1.13,-0.03 0.07,0 0.18,0 0.32,0 0.13,0 0.24,0 0.32,0.01l-0.2 -0.18c-0.05,-0.43 -0.25,-0.74 -0.58,-0.93 -0.33,-0.19 -0.77,-0.28 -1.3,-0.28 -0.38,0 -0.78,0.05 -1.18,0.14 -0.41,0.1 -0.8,0.28 -1.17,0.55l-1.18 -1.19c0.61,-0.43 1.19,-0.72 1.76,-0.87 0.57,-0.15 1.16,-0.23 1.77,-0.23 0.44,0 0.88,0.05 1.33,0.14 0.44,0.1 0.84,0.26 1.18,0.49 0.36,0.23 0.64,0.54 0.86,0.93 0.22,0.38 0.33,0.87 0.33,1.46zm-1.63 1.53c-0.07,-0.01 -0.17,-0.01 -0.29,-0.01 -0.12,0 -0.21,0 -0.26,0 -0.18,0 -0.37,0 -0.57,0 -0.21,0 -0.42,0 -0.64,0.01 -0.21,0.02 -0.43,0.04 -0.65,0.06 -0.22,0.02 -0.43,0.05 -0.62,0.1 -0.41,0.09 -0.72,0.21 -0.93,0.37 -0.22,0.16 -0.32,0.37 -0.32,0.63 0,0.21 0.06,0.37 0.18,0.5 0.12,0.13 0.26,0.23 0.44,0.31 0.18,0.08 0.37,0.13 0.59,0.15 0.21,0.03 0.4,0.04 0.58,0.04 0.18,0 0.4,-0.01 0.66,-0.02 0.26,-0.02 0.51,-0.07 0.76,-0.14 0.24,-0.07 0.45,-0.17 0.63,-0.31 0.17,-0.13 0.26,-0.31 0.26,-0.54l0 -0.97 0.18 -0.18z"/>
      <path class="fil0" d="M177.79 56.15c0,0.29 -0.09,0.54 -0.29,0.74 -0.19,0.19 -0.43,0.29 -0.73,0.29 -0.31,0 -0.55,-0.1 -0.74,-0.29 -0.18,-0.2 -0.27,-0.45 -0.27,-0.74 0,-0.3 0.09,-0.55 0.28,-0.74 0.19,-0.2 0.43,-0.3 0.73,-0.3 0.31,0 0.55,0.1 0.74,0.3 0.19,0.19 0.28,0.44 0.28,0.74zm-0.13 9.76l-1.81 0 0 -8.05 1.81 0 0 8.05z"/>
      <path class="fil0" d="M186.24 63.57c0,0.32 -0.07,0.63 -0.21,0.93 -0.14,0.3 -0.35,0.56 -0.64,0.79 -0.28,0.23 -0.65,0.42 -1.09,0.55 -0.45,0.14 -0.98,0.21 -1.59,0.21 -0.69,0 -1.37,-0.13 -2.05,-0.39 -0.68,-0.25 -1.27,-0.62 -1.77,-1.09l1.27 -1.27c0.32,0.36 0.71,0.64 1.16,0.84 0.45,0.21 0.9,0.31 1.35,0.31 0.35,0 0.64,-0.03 0.87,-0.09 0.22,-0.06 0.4,-0.13 0.53,-0.21 0.13,-0.08 0.22,-0.17 0.28,-0.27 0.05,-0.09 0.07,-0.18 0.07,-0.26 0,-0.07 -0.01,-0.14 -0.03,-0.2 -0.02,-0.07 -0.07,-0.14 -0.15,-0.2 -0.08,-0.07 -0.2,-0.13 -0.36,-0.2 -0.16,-0.07 -0.37,-0.14 -0.63,-0.2 -0.05,-0.01 -0.14,-0.04 -0.27,-0.07 -0.14,-0.04 -0.28,-0.08 -0.44,-0.13 -0.16,-0.04 -0.31,-0.08 -0.45,-0.11 -0.14,-0.04 -0.23,-0.06 -0.27,-0.08 -0.35,-0.08 -0.69,-0.19 -1.01,-0.31 -0.33,-0.12 -0.61,-0.28 -0.86,-0.46 -0.24,-0.18 -0.45,-0.4 -0.59,-0.65 -0.15,-0.25 -0.23,-0.55 -0.23,-0.9 0,-0.33 0.08,-0.64 0.23,-0.93 0.15,-0.28 0.38,-0.53 0.67,-0.75 0.29,-0.22 0.65,-0.39 1.08,-0.51 0.44,-0.13 0.94,-0.19 1.5,-0.19 0.75,0 1.4,0.1 1.95,0.31 0.56,0.2 1.06,0.52 1.52,0.96l-1.25 1.24c-0.27,-0.28 -0.6,-0.51 -0.99,-0.67 -0.39,-0.16 -0.8,-0.24 -1.23,-0.24 -0.34,0 -0.62,0.03 -0.83,0.09 -0.22,0.06 -0.38,0.13 -0.51,0.21 -0.12,0.08 -0.2,0.16 -0.25,0.25 -0.05,0.08 -0.07,0.15 -0.07,0.2 0,0.19 0.12,0.33 0.36,0.43 0.23,0.1 0.62,0.22 1.17,0.37 0.04,0.01 0.13,0.04 0.25,0.07 0.12,0.04 0.26,0.07 0.4,0.11 0.14,0.04 0.27,0.07 0.39,0.11 0.13,0.03 0.21,0.05 0.26,0.06 0.84,0.22 1.46,0.52 1.86,0.9 0.4,0.38 0.6,0.86 0.6,1.44z"/>
      <path class="fil0" d="M198.88 61.87c0,0.6 -0.08,1.16 -0.24,1.67 -0.16,0.5 -0.41,0.95 -0.73,1.32 -0.33,0.37 -0.74,0.67 -1.23,0.87 -0.49,0.21 -1.06,0.32 -1.71,0.32 -0.47,0 -0.92,-0.08 -1.33,-0.23 -0.41,-0.15 -0.75,-0.36 -1,-0.63l-0.03 0 0 3.41 -1.81 0 0 -10.74 1.81 0 0 0.66 0.03 0c0.27,-0.24 0.6,-0.44 1,-0.58 0.4,-0.14 0.84,-0.21 1.33,-0.21 0.65,0 1.22,0.1 1.7,0.31 0.49,0.21 0.9,0.5 1.22,0.87 0.33,0.37 0.58,0.81 0.75,1.31 0.16,0.5 0.24,1.05 0.24,1.65zm-1.81 0.05c0,-0.38 -0.04,-0.73 -0.13,-1.05 -0.08,-0.31 -0.21,-0.58 -0.39,-0.81 -0.18,-0.23 -0.42,-0.41 -0.71,-0.54 -0.29,-0.13 -0.63,-0.19 -1.04,-0.19 -0.41,0 -0.76,0.06 -1.05,0.19 -0.29,0.13 -0.53,0.31 -0.71,0.54 -0.18,0.23 -0.32,0.5 -0.4,0.82 -0.09,0.32 -0.13,0.67 -0.13,1.04 0,0.78 0.17,1.39 0.52,1.84 0.35,0.45 0.94,0.68 1.75,0.68 0.82,0 1.41,-0.23 1.76,-0.69 0.35,-0.45 0.53,-1.06 0.53,-1.83z"/>
      <path class="fil0" d="M204.57 59.55l-0.56 0c-0.76,0 -1.33,0.18 -1.71,0.55 -0.38,0.37 -0.57,0.98 -0.57,1.82l0 3.99 -1.81 0 0 -8.05 1.81 0 0 1.19 0.03 0c0.23,-0.39 0.55,-0.71 0.95,-0.94 0.4,-0.23 0.88,-0.34 1.42,-0.34l0.44 0 0 1.78 0 0z"/>
      <path class="fil0" d="M212.95 61.88c0,0.59 -0.09,1.14 -0.26,1.64 -0.17,0.5 -0.42,0.94 -0.77,1.31 -0.34,0.38 -0.77,0.67 -1.29,0.89 -0.52,0.21 -1.12,0.31 -1.81,0.31 -0.69,0 -1.29,-0.1 -1.8,-0.31 -0.52,-0.22 -0.95,-0.51 -1.29,-0.88 -0.34,-0.37 -0.59,-0.81 -0.77,-1.31 -0.17,-0.51 -0.25,-1.06 -0.25,-1.65 0,-0.58 0.08,-1.13 0.25,-1.64 0.18,-0.5 0.43,-0.94 0.77,-1.31 0.34,-0.37 0.77,-0.67 1.29,-0.88 0.51,-0.21 1.11,-0.32 1.8,-0.32 0.69,0 1.29,0.11 1.81,0.32 0.52,0.21 0.95,0.51 1.29,0.88 0.34,0.37 0.6,0.81 0.77,1.31 0.17,0.51 0.26,1.06 0.26,1.64zm-1.81 0c0,-0.36 -0.05,-0.7 -0.14,-1.02 -0.09,-0.31 -0.22,-0.58 -0.41,-0.81 -0.19,-0.23 -0.43,-0.4 -0.72,-0.53 -0.3,-0.13 -0.65,-0.19 -1.04,-0.19 -0.41,0 -0.75,0.06 -1.04,0.19 -0.29,0.13 -0.53,0.3 -0.72,0.53 -0.18,0.23 -0.32,0.49 -0.41,0.8 -0.09,0.32 -0.14,0.66 -0.14,1.03 0,0.38 0.05,0.72 0.14,1.03 0.09,0.31 0.23,0.58 0.41,0.81 0.19,0.22 0.43,0.4 0.73,0.53 0.29,0.12 0.64,0.19 1.04,0.19 0.4,0 0.74,-0.07 1.03,-0.19 0.29,-0.13 0.53,-0.31 0.72,-0.53 0.19,-0.23 0.32,-0.5 0.41,-0.81 0.09,-0.31 0.14,-0.65 0.14,-1.03zm-0.41 -7.23l-2.77 2.38 -0.72 -0.72 2.38 -2.77 1.11 1.11z"/>
      <polygon class="fil0" points="221.42,65.91 219.16,65.91 217.65,63.89 217.26,63.21 217.23,63.21 216.86,63.89 215.34,65.91 213.09,65.91 216.14,61.87 213.12,57.86 215.38,57.86 216.77,59.72 217.24,60.52 217.27,60.52 217.75,59.72 219.15,57.86 221.38,57.86 218.35,61.87 "/>
      <path class="fil0" d="M223.95 56.15c0,0.29 -0.1,0.54 -0.29,0.74 -0.19,0.19 -0.44,0.29 -0.73,0.29 -0.31,0 -0.55,-0.1 -0.74,-0.29 -0.18,-0.2 -0.27,-0.45 -0.27,-0.74 0,-0.3 0.09,-0.55 0.28,-0.74 0.19,-0.2 0.43,-0.3 0.73,-0.3 0.3,0 0.55,0.1 0.74,0.3 0.19,0.19 0.28,0.44 0.28,0.74zm-0.13 9.76l-1.81 0 0 -8.05 1.81 0 0 8.05z"/>
      <path class="fil0" d="M236.55 61.18l-0.02 4.73 -1.81 0 0 -4.45c0,-0.35 -0.02,-0.66 -0.04,-0.92 -0.04,-0.27 -0.1,-0.5 -0.2,-0.68 -0.1,-0.17 -0.23,-0.31 -0.41,-0.4 -0.17,-0.09 -0.41,-0.13 -0.7,-0.13 -0.26,0 -0.48,0.04 -0.68,0.14 -0.19,0.09 -0.36,0.22 -0.48,0.38 -0.14,0.16 -0.23,0.35 -0.3,0.57 -0.06,0.22 -0.09,0.45 -0.09,0.7l0 4.79 -1.82 0 0 -4.73c0,-0.31 -0.01,-0.58 -0.05,-0.81 -0.04,-0.23 -0.11,-0.42 -0.21,-0.57 -0.1,-0.15 -0.23,-0.27 -0.4,-0.35 -0.17,-0.08 -0.4,-0.12 -0.67,-0.12 -0.21,0 -0.41,0.04 -0.6,0.12 -0.19,0.09 -0.36,0.21 -0.5,0.37 -0.14,0.16 -0.25,0.35 -0.33,0.57 -0.08,0.22 -0.12,0.47 -0.12,0.74l0 4.78 -1.82 0 0 -8.06 1.82 0 0 0.61 0.04 0c0.23,-0.23 0.51,-0.41 0.85,-0.54 0.34,-0.13 0.68,-0.19 1.02,-0.19 0.49,0 0.93,0.12 1.33,0.36 0.39,0.25 0.68,0.56 0.86,0.93l0.03 0c0.11,-0.18 0.25,-0.35 0.42,-0.5 0.17,-0.16 0.36,-0.3 0.56,-0.41 0.2,-0.12 0.41,-0.21 0.64,-0.28 0.23,-0.07 0.47,-0.1 0.72,-0.1 1,0 1.74,0.3 2.23,0.91 0.48,0.61 0.73,1.46 0.73,2.54z"/>
      <path class="fil0" d="M245.24 60.76l0 5.16 -1.81 0 0 -0.51 -0.02 0c-0.34,0.23 -0.7,0.39 -1.09,0.49 -0.39,0.1 -0.79,0.15 -1.2,0.15 -0.41,0 -0.83,-0.05 -1.26,-0.13 -0.43,-0.08 -0.82,-0.23 -1.16,-0.42 -0.35,-0.2 -0.63,-0.46 -0.85,-0.79 -0.22,-0.34 -0.33,-0.75 -0.33,-1.26 0,-0.41 0.08,-0.77 0.26,-1.07 0.17,-0.31 0.4,-0.56 0.69,-0.76 0.28,-0.2 0.62,-0.36 0.99,-0.48 0.38,-0.12 0.77,-0.21 1.18,-0.27 0.41,-0.07 0.81,-0.11 1.21,-0.12 0.41,-0.02 0.79,-0.03 1.13,-0.03 0.07,0 0.18,0 0.32,0 0.14,0 0.25,0 0.32,0.01l-0.2 -0.18c-0.05,-0.43 -0.24,-0.74 -0.58,-0.93 -0.33,-0.19 -0.76,-0.28 -1.3,-0.28 -0.38,0 -0.78,0.05 -1.18,0.14 -0.41,0.1 -0.8,0.28 -1.17,0.55l-1.18 -1.19c0.61,-0.43 1.2,-0.72 1.76,-0.87 0.57,-0.15 1.16,-0.23 1.77,-0.23 0.44,0 0.89,0.05 1.33,0.14 0.44,0.1 0.84,0.26 1.19,0.49 0.35,0.23 0.63,0.54 0.85,0.93 0.22,0.38 0.33,0.87 0.33,1.46zm-1.63 1.53c-0.07,-0.01 -0.16,-0.01 -0.29,-0.01 -0.12,0 -0.21,0 -0.26,0 -0.17,0 -0.37,0 -0.57,0 -0.2,0 -0.42,0 -0.64,0.01 -0.21,0.02 -0.43,0.04 -0.65,0.06 -0.22,0.02 -0.42,0.05 -0.62,0.1 -0.41,0.09 -0.72,0.21 -0.93,0.37 -0.21,0.16 -0.32,0.37 -0.32,0.63 0,0.21 0.06,0.37 0.18,0.5 0.12,0.13 0.27,0.23 0.45,0.31 0.17,0.08 0.37,0.13 0.58,0.15 0.21,0.03 0.41,0.04 0.59,0.04 0.17,0 0.39,-0.01 0.65,-0.02 0.26,-0.02 0.51,-0.07 0.76,-0.14 0.25,-0.07 0.46,-0.17 0.63,-0.31 0.17,-0.13 0.26,-0.31 0.26,-0.54l0 -0.97 0.18 -0.18z"/>
      <path class="fil0" d="M257.63 65.92l-1.82 0 0 -0.66 -0.02 0c-0.28,0.24 -0.61,0.44 -1.01,0.57 -0.39,0.14 -0.84,0.21 -1.33,0.21 -0.65,0 -1.22,-0.11 -1.7,-0.32 -0.49,-0.21 -0.89,-0.5 -1.22,-0.87 -0.33,-0.37 -0.58,-0.8 -0.74,-1.31 -0.17,-0.5 -0.25,-1.05 -0.25,-1.64 0,-0.6 0.08,-1.15 0.24,-1.66 0.16,-0.52 0.41,-0.96 0.74,-1.33 0.32,-0.37 0.73,-0.66 1.22,-0.87 0.48,-0.2 1.05,-0.31 1.71,-0.31 0.47,0 0.92,0.08 1.33,0.23 0.42,0.14 0.75,0.36 1.01,0.63l0.02 0 0 -3.41 1.82 0 0 10.74zm-1.72 -4.02c0,-0.39 -0.04,-0.74 -0.12,-1.05 -0.09,-0.32 -0.22,-0.59 -0.4,-0.81 -0.18,-0.23 -0.41,-0.4 -0.7,-0.53 -0.29,-0.12 -0.64,-0.18 -1.05,-0.18 -0.41,0 -0.76,0.06 -1.05,0.18 -0.29,0.13 -0.52,0.3 -0.71,0.53 -0.18,0.22 -0.31,0.49 -0.4,0.81 -0.08,0.31 -0.13,0.66 -0.13,1.05 0,0.38 0.05,0.73 0.13,1.04 0.09,0.31 0.22,0.57 0.4,0.8 0.19,0.22 0.42,0.39 0.71,0.51 0.29,0.13 0.64,0.19 1.05,0.19 0.41,0 0.75,-0.06 1.04,-0.19 0.29,-0.12 0.52,-0.29 0.7,-0.51 0.19,-0.23 0.32,-0.49 0.41,-0.81 0.08,-0.31 0.12,-0.66 0.12,-1.03z"/>
      <path class="fil0" d="M267.08 61.95c0,0.09 0,0.2 -0.01,0.33 0,0.13 -0.01,0.25 -0.03,0.38l-6.46 0 0.18 0.18c0.12,0.52 0.38,0.92 0.76,1.2 0.39,0.28 0.9,0.42 1.53,0.42 0.41,0 0.78,-0.07 1.12,-0.21 0.34,-0.14 0.69,-0.37 1.04,-0.68l1.2 1.2c-0.51,0.46 -1.05,0.79 -1.6,0.98 -0.55,0.19 -1.14,0.29 -1.77,0.29 -0.71,0 -1.34,-0.11 -1.86,-0.32 -0.53,-0.21 -0.97,-0.5 -1.31,-0.87 -0.35,-0.37 -0.61,-0.8 -0.78,-1.29 -0.17,-0.5 -0.25,-1.03 -0.25,-1.61 0,-0.61 0.09,-1.17 0.27,-1.68 0.19,-0.52 0.45,-0.96 0.81,-1.34 0.35,-0.37 0.79,-0.67 1.3,-0.88 0.52,-0.21 1.11,-0.32 1.77,-0.32 0.69,0 1.29,0.11 1.81,0.33 0.51,0.21 0.94,0.51 1.28,0.89 0.33,0.38 0.58,0.83 0.75,1.34 0.17,0.51 0.25,1.06 0.25,1.66zm-1.74 -0.83l-0.16 -0.18c-0.29,-1.08 -1.02,-1.63 -2.2,-1.63 -0.61,0 -1.1,0.15 -1.45,0.43 -0.36,0.28 -0.61,0.68 -0.76,1.2l-0.18 0.18 4.75 0 0 0z"/>
      <polygon class="fil0" points="279.22,57.86 275.75,65.91 274.04,65.91 270.6,57.86 272.61,57.86 274.55,62.73 274.88,63.8 274.91,63.8 275.25,62.73 277.2,57.86 "/>
      <path class="fil0" d="M287.47 61.88c0,0.59 -0.09,1.14 -0.26,1.64 -0.17,0.5 -0.43,0.94 -0.77,1.31 -0.35,0.38 -0.78,0.67 -1.29,0.89 -0.52,0.21 -1.12,0.31 -1.81,0.31 -0.69,0 -1.29,-0.1 -1.81,-0.31 -0.51,-0.22 -0.94,-0.51 -1.28,-0.88 -0.34,-0.37 -0.6,-0.81 -0.77,-1.31 -0.17,-0.51 -0.25,-1.06 -0.25,-1.65 0,-0.58 0.08,-1.13 0.25,-1.64 0.17,-0.5 0.43,-0.94 0.77,-1.31 0.34,-0.37 0.77,-0.67 1.28,-0.88 0.52,-0.21 1.12,-0.32 1.81,-0.32 0.69,0 1.29,0.11 1.81,0.32 0.51,0.21 0.94,0.51 1.29,0.88 0.34,0.37 0.6,0.81 0.77,1.31 0.17,0.51 0.26,1.06 0.26,1.64zm-1.82 0c0,-0.36 -0.04,-0.7 -0.13,-1.02 -0.09,-0.31 -0.23,-0.58 -0.41,-0.81 -0.19,-0.23 -0.43,-0.4 -0.73,-0.53 -0.29,-0.13 -0.64,-0.19 -1.04,-0.19 -0.4,0 -0.74,0.06 -1.03,0.19 -0.29,0.13 -0.53,0.3 -0.72,0.53 -0.19,0.23 -0.32,0.49 -0.41,0.8 -0.09,0.32 -0.14,0.66 -0.14,1.03 0,0.38 0.05,0.72 0.14,1.03 0.09,0.31 0.23,0.58 0.41,0.81 0.19,0.22 0.43,0.4 0.72,0.53 0.3,0.12 0.64,0.19 1.04,0.19 0.41,0 0.75,-0.07 1.04,-0.19 0.29,-0.13 0.53,-0.31 0.72,-0.53 0.18,-0.23 0.32,-0.5 0.41,-0.81 0.09,-0.31 0.13,-0.65 0.13,-1.03z"/>
      <path class="fil0" d="M295.66 64.8c-0.5,0.45 -1.01,0.77 -1.55,0.95 -0.53,0.19 -1.11,0.28 -1.72,0.28 -0.71,0 -1.32,-0.1 -1.84,-0.31 -0.51,-0.22 -0.94,-0.51 -1.29,-0.87 -0.34,-0.37 -0.6,-0.8 -0.76,-1.3 -0.17,-0.5 -0.25,-1.03 -0.25,-1.6 0,-0.59 0.09,-1.14 0.27,-1.65 0.18,-0.51 0.45,-0.96 0.81,-1.34 0.35,-0.39 0.79,-0.69 1.31,-0.9 0.52,-0.22 1.11,-0.33 1.77,-0.33 0.67,0 1.26,0.09 1.78,0.28 0.52,0.19 1,0.49 1.44,0.91l-1.24 1.24c-0.29,-0.28 -0.59,-0.49 -0.9,-0.63 -0.32,-0.14 -0.67,-0.2 -1.07,-0.2 -0.39,0 -0.73,0.07 -1.02,0.2 -0.3,0.14 -0.55,0.33 -0.74,0.56 -0.21,0.24 -0.35,0.52 -0.45,0.83 -0.1,0.32 -0.15,0.66 -0.15,1.03 0,0.35 0.04,0.67 0.14,0.97 0.09,0.31 0.22,0.57 0.41,0.8 0.19,0.22 0.43,0.4 0.72,0.53 0.3,0.12 0.65,0.19 1.07,0.19 0.38,0 0.73,-0.07 1.05,-0.2 0.32,-0.13 0.65,-0.36 0.98,-0.68l1.23 1.24z"/>
      <path class="fil0" d="M304.35 61.95c0,0.09 -0.01,0.2 -0.01,0.33 -0.01,0.13 -0.02,0.25 -0.03,0.38l-6.47 0 0.18 0.18c0.13,0.52 0.39,0.92 0.77,1.2 0.38,0.28 0.89,0.42 1.53,0.42 0.4,0 0.77,-0.07 1.11,-0.21 0.34,-0.14 0.69,-0.37 1.05,-0.68l1.2 1.2c-0.52,0.46 -1.05,0.79 -1.6,0.98 -0.55,0.19 -1.14,0.29 -1.77,0.29 -0.72,0 -1.34,-0.11 -1.87,-0.32 -0.53,-0.21 -0.96,-0.5 -1.31,-0.87 -0.34,-0.37 -0.6,-0.8 -0.77,-1.29 -0.17,-0.5 -0.26,-1.03 -0.26,-1.61 0,-0.61 0.1,-1.17 0.28,-1.68 0.18,-0.52 0.45,-0.96 0.8,-1.34 0.36,-0.37 0.79,-0.67 1.31,-0.88 0.51,-0.21 1.1,-0.32 1.77,-0.32 0.68,0 1.29,0.11 1.8,0.33 0.52,0.21 0.94,0.51 1.28,0.89 0.34,0.38 0.59,0.83 0.75,1.34 0.17,0.51 0.26,1.06 0.26,1.66zm-1.61 -5.65l-0.72 0.72 -1.81 -1.49 -1.82 1.49 -0.7 -0.72 2.52 -2.49 0.02 0 2.51 2.49zm-0.13 4.82l-0.17 -0.18c-0.28,-1.08 -1.01,-1.63 -2.2,-1.63 -0.61,0 -1.09,0.15 -1.44,0.43 -0.36,0.28 -0.61,0.68 -0.77,1.2l-0.18 0.18 4.76 0 0 0z"/>
      <path class="fil0" d="M305.8 64.69c0.2,0 0.35,0.06 0.45,0.18 0.1,0.12 0.15,0.28 0.15,0.49 0,0.2 -0.05,0.37 -0.15,0.49 -0.1,0.12 -0.25,0.18 -0.45,0.18 -0.2,0 -0.36,-0.05 -0.46,-0.17 -0.1,-0.12 -0.15,-0.29 -0.15,-0.5 0,-0.21 0.05,-0.37 0.16,-0.49 0.1,-0.12 0.25,-0.18 0.45,-0.18z"/>
     </g>
     <g>
      <path class="fil0" d="M98.11 16.33c0.56,-0.29 1.39,-0.44 2.43,-0.44 1.91,0 3.96,0.64 4.94,0.95l0.66 0.2 1.33 -6.72 -0.29 -0.06c-1.54,-0.34 -3.16,-0.66 -4.14,-0.78 -1.09,-0.13 -2.09,-0.21 -2.99,-0.21 -3.17,0 -5.43,0.28 -7.65,1.7 -2.05,1.3 -3.18,3 -3.66,5.53 -0.57,2.9 0.91,5.21 2.1,6.71 0.08,0.09 0.76,0.96 1.32,1.65 0.79,0.99 1.31,1.64 1.43,1.78 1.62,1.77 1.7,2.65 1.56,3.35 -0.07,0.43 -0.36,0.79 -0.82,1.08 -0.49,0.29 -1.12,0.44 -1.85,0.44 -1.11,0 -2.27,-0.13 -3.43,-0.38 -1.17,-0.24 -2.47,-0.65 -3.88,-1.19l-0.33 -0.14 -1.39 7.41 0.28 0.07c1.3,0.27 3.15,0.62 4.44,0.79 1.23,0.16 2.38,0.24 3.44,0.24 3.62,0 6.52,-0.68 8.62,-2 2.07,-1.3 3.21,-2.93 3.92,-5.58 0.64,-2.37 -0.1,-4.63 -2.29,-6.93l-2.4 -2.57c-1.67,-1.67 -2.44,-2.91 -2.29,-3.69 0.11,-0.54 0.41,-0.93 0.94,-1.21z"/>
      <g>
       <path class="fil0" d="M126.02 18.81c-1.29,-1.7 -3.4,-2.61 -6.32,-2.7 -3.44,-0.1 -6.44,0.97 -8.91,3.19 -2.33,2.11 -3.84,5.07 -4.42,8.8 -0.54,3.27 -0.02,5.83 1.55,7.59 1.55,1.78 4.08,2.67 7.52,2.67 1.06,0 2.18,-0.07 3.37,-0.23 0.66,-0.07 1.5,-0.19 2.39,-0.37 1.56,-0.31 1.92,-1.65 1.94,-1.69l1.43 -4.61 -0.52 0.13c-0.94,0.23 -1.88,0.4 -2.76,0.52 -0.88,0.1 -1.75,0.16 -2.6,0.16 -1.59,0 -2.71,-0.26 -3.34,-0.75 -0.61,-0.49 -0.82,-1.21 -0.66,-2.26 0.02,-0.14 0.05,-0.25 0.07,-0.33l11.76 0.04 0.08 -0.29c0.6,-1.93 1.76,-6.75 -0.58,-9.87zm-5.99 5.53l-4.41 0c0.29,-0.9 0.69,-1.62 1.19,-2.13 0.55,-0.57 1.15,-0.85 1.83,-0.85 0.61,0 1,0.23 1.24,0.71 0.24,0.5 0.3,1.27 0.15,2.27z"/>
      </g>
      <g>
       <path class="fil0" d="M236.9 18.81c-1.28,-1.7 -3.4,-2.61 -6.3,-2.7 -3.47,-0.1 -6.46,0.97 -8.93,3.19 -2.34,2.11 -3.83,5.07 -4.43,8.8 -0.53,3.27 -0.01,5.83 1.56,7.59 1.55,1.78 4.09,2.67 7.52,2.67 1.06,0 2.2,-0.07 3.37,-0.23 0.65,-0.07 1.5,-0.19 2.38,-0.37 1.59,-0.31 1.94,-1.65 1.95,-1.69l1.44 -4.61 -0.53 0.13c-0.93,0.23 -1.88,0.4 -2.75,0.52 -0.89,0.1 -1.77,0.16 -2.61,0.16 -1.58,0 -2.7,-0.26 -3.34,-0.75 -0.61,-0.49 -0.83,-1.21 -0.66,-2.26 0.03,-0.14 0.05,-0.25 0.06,-0.33l11.77 0.04 0.09 -0.29c0.59,-1.93 1.74,-6.75 -0.59,-9.87zm-5.99 5.53l-4.42 0c0.3,-0.9 0.71,-1.62 1.21,-2.13 0.54,-0.57 1.14,-0.85 1.83,-0.85 0.61,0 0.99,0.23 1.23,0.71 0.25,0.5 0.29,1.27 0.15,2.27z"/>
      </g>
      <path class="fil0" d="M143.77 16.24c-1.18,0 -2.24,0.24 -3.18,0.72 -0.68,0.37 -1.35,0.92 -2.02,1.67l0.4 -1.95 -7.34 0 -0.05 0.25c-0.01,0.16 -3.42,17.48 -4.2,20.48l-0.1 0.37 6.27 0 0.01 0c0.69,-0.02 2.09,-0.4 2.34,-1.76 0.6,-3.3 1.15,-5.92 1.37,-6.94 0.86,-3.81 2.41,-4.99 3.03,-5.32 1.94,-1.04 3.72,-0.76 4.05,-0.71l0.33 0.04 1.73 -6.16 0.08 -0.27 -0.32 -0.09c-0.43,-0.12 -1.32,-0.33 -2.4,-0.33z"/>
      <path class="fil0" d="M164.5 16.68l-6.88 12.33 -2.07 -12.33 -7.57 0 3.73 21.1 6.61 0c1.42,0 2.14,-1.14 2.18,-1.21l11.58 -19.89 -7.58 0 0 0z"/>
      <path class="fil0" d="M173.73 16.66l-4.4 21.12 6.49 0c1.48,0 2.2,-1.13 2.36,-1.76l4.06 -19.36 -8.51 0z"/>
      <polygon class="fil0" points="183.61,9.55 175.31,9.55 174.17,15.06 182.48,15.06 "/>
      <g>
       <path class="fil0" d="M257.72 9.6l-1.43 6.8c-0.33,-0.05 -0.86,-0.13 -1.14,-0.15 -0.44,-0.04 -0.84,-0.06 -1.2,-0.06 -3.69,0 -6.9,1.16 -9.56,3.46 -2.65,2.29 -4.3,5.36 -4.9,9.09 -0.47,2.94 -0.05,5.31 1.22,7.02 1.3,1.72 3.35,2.6 6.08,2.6 1.2,0 2.29,-0.16 3.24,-0.47 0.71,-0.24 1.38,-0.56 2.01,-0.98l-0.17 0.87 5.85 0c0.66,-0.01 2.02,-0.4 2.35,-1.86l0.03 -0.11c3.29,-16.31 4.8,-23.46 5.34,-25.85l0.07 -0.36 -7.79 0 0 0zm-3.59 17.67c-0.33,1.64 -0.86,2.88 -1.58,3.7 -0.68,0.8 -1.53,1.19 -2.57,1.19 -0.87,0 -1.49,-0.34 -1.86,-1.04 -0.41,-0.74 -0.51,-1.81 -0.29,-3.13 0.3,-1.88 0.99,-3.37 2.05,-4.45 1.06,-1.08 2.31,-1.6 3.85,-1.6 0.27,0 0.55,0.02 0.83,0.07 0.21,0.04 0.42,0.09 0.62,0.16l-1.05 5.1z"/>
      </g>
      <path class="fil0" d="M215.07 17.81c-0.86,-0.94 -2.19,-1.44 -3.86,-1.44 -3.14,0 -5.31,1.32 -6.73,2.42 -0.48,-0.94 -1.74,-2.42 -4.83,-2.42 -2.59,0 -4.81,1.21 -6.38,2.4l0.35 -2.09 -7.87 0 -0.05 0.25c-0.59,3.61 -4.22,20.34 -4.26,20.51l-0.08 0.34 6.12 0c0.52,0 1.94,-0.31 2.28,-1.74 0.31,-1.49 1.92,-8.97 2.38,-10.59 0.54,-1.94 1.78,-2.79 2.77,-2.79 0.48,0 0.81,0.13 1.04,0.37 0.33,0.38 0.43,1.07 0.27,2.06 -0.25,1.55 -2.46,12.23 -2.5,12.35l-0.07 0.34 5.56 0c1.48,0 2.19,-1.13 2.37,-1.76l2.26 -10.94c0.52,-1.46 1.56,-2.42 2.63,-2.42 0.48,0 0.81,0.13 1.03,0.37 0.35,0.38 0.44,1.07 0.28,2.06 -0.25,1.55 -2.48,12.23 -2.5,12.35l-0.07 0.34 5.51 0c1.48,0 2.19,-1.13 2.36,-1.76l3 -14.51 -0.01 -0.23 -0.01 0c0.16,-1.39 -0.18,-2.59 -0.99,-3.47z"/>
      <g>
       <g>
        <path class="fil0" d="M270.46 10.51l-0.38 0 -0.49 -1.2 -0.8 0 0 1.2 -0.32 0 0 -2.76 1.09 0c0.29,0 0.51,0.08 0.65,0.25 0.14,0.16 0.22,0.33 0.22,0.53 0,0.13 -0.05,0.28 -0.11,0.43 -0.09,0.12 -0.22,0.22 -0.41,0.28l0.55 1.27zm-1.67 -1.47l0.72 0c0.19,0 0.33,-0.04 0.42,-0.14 0.11,-0.11 0.15,-0.24 0.15,-0.38 0,-0.14 -0.06,-0.26 -0.15,-0.35 -0.1,-0.07 -0.23,-0.12 -0.37,-0.12l-0.77 0 0 0.99z"/>
        <path class="fil0" d="M270.46 10.51l-0.38 0 -0.49 -1.2 -0.8 0 0 1.2 -0.32 0 0 -2.76 1.09 0c0.29,0 0.51,0.08 0.65,0.25 0.14,0.16 0.22,0.33 0.22,0.53 0,0.13 -0.05,0.28 -0.11,0.43 -0.09,0.12 -0.22,0.22 -0.41,0.28l0.55 1.27zm-1.67 -1.47l0.72 0c0.19,0 0.33,-0.04 0.42,-0.14 0.11,-0.11 0.15,-0.24 0.15,-0.38 0,-0.14 -0.06,-0.26 -0.15,-0.35 -0.1,-0.07 -0.23,-0.12 -0.37,-0.12l-0.77 0 0 0.99z"/>
       </g>
       <path class="fil0" d="M269.34 6.9c-1.22,0 -2.22,0.99 -2.22,2.21 0,1.23 1,2.22 2.22,2.22 1.21,0 2.21,-0.99 2.21,-2.22 0,-1.22 -1,-2.21 -2.21,-2.21zm0 4.17c-1.08,0 -1.96,-0.87 -1.96,-1.96 0,-1.07 0.88,-1.96 1.96,-1.96 1.09,0 1.97,0.89 1.97,1.96 0,1.09 -0.88,1.96 -1.97,1.96z"/>
       <path class="fil0" d="M269.34 6.9c-1.22,0 -2.22,0.99 -2.22,2.21 0,1.23 1,2.22 2.22,2.22 1.21,0 2.21,-0.99 2.21,-2.22 0,-1.22 -1,-2.21 -2.21,-2.21zm0 4.17c-1.08,0 -1.96,-0.87 -1.96,-1.96 0,-1.07 0.88,-1.96 1.96,-1.96 1.09,0 1.97,0.89 1.97,1.96 0,1.09 -0.88,1.96 -1.97,1.96z"/>
      </g>
     </g>
    </g>
    <path class="fil0" d="M151.86 64.48c9.61,-1 48.45,-2.61 58.1,-3.28 9.65,-0.68 19.32,-1.19 29,-1.6 4.85,-0.19 9.69,-0.31 14.54,-0.43 2.43,-0.04 4.85,-0.04 7.28,-0.07 2.43,0.01 4.86,0.04 7.28,0.09 0.31,0 0.55,0.2 0.55,0.44 -0.01,0.23 -0.24,0.42 -0.53,0.43l-0.02 0 -7.24 0.25c-2.41,0.11 -4.83,0.25 -7.24,0.34 -4.82,0.24 -9.65,0.48 -14.47,0.79l-28.94 1.73 -58.19 2.18c-0.31,0.02 -0.58,-0.16 -0.6,-0.4 -0.03,-0.23 0.19,-0.44 0.48,-0.47z"/>
    <g>
     <path class="fil0" d="M146.69 81.83c0.35,-0.27 0.57,-0.54 0.67,-0.83 0.1,-0.27 0.14,-0.52 0.12,-0.73 -0.02,-0.24 -0.17,-0.46 -0.45,-0.67 -0.27,-0.21 -0.7,-0.28 -1.3,-0.24 -0.89,0.07 -1.87,0.48 -2.9,1.22 -1.04,0.74 -1.59,1.55 -1.64,2.39 -0.14,0.55 -0.47,1.24 -0.99,2.09 -0.16,0.29 0.04,0.44 0.1,0.48 0.06,0.04 0.28,0.15 0.51,-0.15 0.31,-0.54 0.56,-0.99 0.73,-1.33 0.16,0.19 0.39,0.37 0.7,0.54 0.06,0.03 0.26,0.12 0.61,0.27 0.88,0.38 1.03,0.68 1.04,0.82 0.05,0.53 -0.19,1.08 -0.7,1.65 -0.52,0.58 -1.09,0.99 -1.67,1.22 -0.12,0.05 -0.25,0.07 -0.37,0.08 -0.05,0.01 -0.14,0 -0.25,-0.11 -0.07,-0.07 0.01,-0.21 0.09,-0.32l0.01 -0.01c0.16,-0.25 0.28,-0.35 0.35,-0.39 0.19,-0.1 0.28,-0.18 0.3,-0.27 0.03,-0.11 0,-0.21 -0.08,-0.28 -0.08,-0.07 -0.19,-0.08 -0.3,-0.03 -0.48,0.25 -0.83,0.49 -1.05,0.76 -0.24,0.34 -0.35,0.56 -0.33,0.73 0.01,0.16 0.05,0.28 0.11,0.34 0.1,0.18 0.32,0.38 0.72,0.38 0.03,0 0.07,0 0.1,0 0.32,-0.02 0.64,-0.09 0.95,-0.19 1.35,-0.42 2.36,-1.05 3,-1.88 0.47,-0.6 0.65,-1.14 0.53,-1.61 -0.03,-0.2 -0.17,-0.4 -0.42,-0.6 -0.23,-0.18 -0.42,-0.31 -0.59,-0.39 -0.15,-0.08 -0.41,-0.2 -0.77,-0.36 -0.36,-0.16 -0.62,-0.28 -0.77,-0.35 -0.31,-0.15 -0.47,-0.32 -0.48,-0.51 -0.02,-0.22 0.04,-0.44 0.2,-0.67 0.41,-0.68 1.02,-1.26 1.8,-1.73 0.79,-0.47 1.46,-0.73 2,-0.77l0.11 -0.01c0.21,0.03 0.24,0.12 0.23,0.27 -0.02,0.23 -0.09,0.41 -0.21,0.55 -0.12,0.14 -0.27,0.35 -0.18,0.54l0.02 0.04c0.08,0.1 0.16,0.12 0.22,0.13 0.05,0.01 0.14,0 0.23,-0.07z"/>
     <path class="fil0" d="M173.28 80.47c-0.11,-0.51 -0.49,-0.86 -1.13,-1.03 -0.29,-0.07 -0.57,-0.1 -0.85,-0.08 -0.69,0.06 -1.38,0.41 -2.05,1.05 -0.31,0.27 -0.66,0.7 -1.05,1.3 0.2,-0.53 0.36,-0.92 0.5,-1.18 0.26,-0.49 0.38,-0.87 0.36,-1.15 -0.02,-0.25 -0.16,-0.66 -0.91,-0.6 -0.26,0.02 -0.44,0.06 -0.57,0.12 -0.24,0.11 -0.27,0.28 -0.26,0.36 0.01,0.45 -0.11,1.15 -0.35,2.08 -0.12,0.46 -0.21,0.82 -0.29,1.1 -0.04,0.03 -0.09,0.07 -0.12,0.12 -0.36,0.6 -0.85,1.23 -1.46,1.88 -0.61,0.65 -1.1,1.09 -1.45,1.31 -0.39,0.25 -0.58,0.15 -0.69,0.05 -0.1,-0.09 -0.15,-0.22 -0.16,-0.38 -0.02,-0.2 -0.02,-0.43 -0.01,-0.68 0,-0.25 0.11,-0.7 0.32,-1.36 0.2,-0.66 0.4,-1.17 0.59,-1.51 0.27,-0.49 0.3,-0.65 0.29,-0.74 -0.01,-0.13 -0.07,-0.21 -0.12,-0.26 -0.08,-0.07 -0.21,-0.1 -0.38,-0.09 -0.22,0.02 -0.63,0.17 -1.27,0.47 -0.51,0.25 -1.19,0.79 -2.06,1.66 0.01,-0.03 0.02,-0.07 0.04,-0.11 0.17,-0.47 0.31,-0.85 0.45,-1.17 0.14,-0.35 0.2,-0.67 0.18,-0.95 -0.02,-0.31 -0.13,-0.52 -0.31,-0.61 -0.16,-0.07 -0.32,-0.11 -0.48,-0.09 -0.66,0.05 -1.72,0.98 -3.24,2.84 -0.47,0.58 -0.89,1.11 -1.25,1.6 0.43,-1.49 0.71,-2.39 0.82,-2.68 0.19,-0.51 0.21,-0.67 0.2,-0.76 -0.01,-0.13 -0.09,-0.35 -0.47,-0.43 -0.25,-0.04 -0.47,-0.03 -0.65,0.06 -0.31,0.13 -0.5,0.48 -0.55,1.04 -0.22,0.51 -0.56,1.14 -1.01,1.86 -0.02,0.02 -0.03,0.04 -0.05,0.06 -0.76,1.39 -1.93,2.48 -3.48,3.25 -0.52,0.27 -1,0.42 -1.41,0.45 -0.34,0.02 -0.6,-0.04 -0.76,-0.19 -0.18,-0.16 -0.27,-0.33 -0.28,-0.51 -0.02,-0.21 0,-0.43 0.05,-0.65 0.16,-0.74 0.59,-1.53 1.26,-2.36 0.68,-0.83 1.34,-1.43 1.98,-1.79 0.28,-0.17 0.51,-0.27 0.67,-0.28 0.13,-0.01 0.19,0.02 0.2,0.18 0.01,0.2 -0.05,0.43 -0.2,0.67 -0.39,0.56 -1.05,1.14 -1.96,1.73 -0.47,0.31 -0.87,0.5 -1.16,0.55 -0.05,0 -0.1,0.02 -0.17,0.04 -0.13,0.05 -0.19,0.18 -0.15,0.3 0.02,0.1 0.11,0.34 0.53,0.28 0.58,-0.09 1.28,-0.37 2.07,-0.84 0.8,-0.48 1.38,-1.02 1.7,-1.59 0.22,-0.29 0.32,-0.66 0.29,-1.09 -0.07,-0.85 -0.56,-1.26 -1.44,-1.19 -0.74,0.05 -1.66,0.57 -2.82,1.56 -1.14,0.98 -1.87,1.92 -2.18,2.8 -0.16,0.51 -0.22,0.96 -0.19,1.33 0.02,0.37 0.14,0.7 0.34,0.96 0.44,0.56 1.13,0.84 2.04,0.84 0.12,0 0.24,-0.01 0.37,-0.02 1.25,-0.09 2.51,-0.76 3.74,-1.99 0.46,-0.46 0.86,-0.96 1.19,-1.49 0.04,-0.06 0.08,-0.11 0.13,-0.17 -0.46,1.77 -0.71,2.71 -0.75,2.79 -0.05,0.12 -0.06,0.21 -0.06,0.28l0.02 0.1 0.05 0.04c0.05,0.05 0.12,0.07 0.23,0.07 0.02,0 0.05,-0.01 0.08,-0.01 0.11,-0.01 0.32,-0.07 1.03,-0.5 0.07,-0.04 0.19,-0.14 1.39,-2.02 0.78,-1.22 1.38,-2.06 1.78,-2.5 0.79,-0.81 1.12,-0.95 1.25,-0.97 -0.01,0.06 -0.07,0.32 -0.63,1.59 -0.44,1.02 -0.66,1.67 -0.67,1.98 0,0.17 0.06,0.29 0.16,0.38 0.13,0.09 0.3,0.12 0.53,0.07 0.38,-0.08 0.63,-0.31 0.76,-0.68l0.38 -0.49c0.33,-0.41 0.77,-0.91 1.32,-1.47 0.24,-0.26 0.53,-0.49 0.87,-0.7 -0.1,0.26 -0.21,0.59 -0.34,1 -0.22,0.72 -0.3,1.44 -0.25,2.13 0.02,0.24 0.08,0.47 0.17,0.7 0.11,0.25 0.34,0.46 0.7,0.63 0.36,0.17 0.89,0.11 1.61,-0.2 0.63,-0.3 1.37,-0.98 2.24,-2.08 0.01,-0.02 0.02,-0.03 0.04,-0.05 -0.21,0.71 -0.48,1.61 -0.81,2.73 -0.8,2.7 -1.49,4.79 -2.05,6.2 -0.04,0.12 -0.06,0.22 -0.06,0.31 0.02,0.22 0.16,0.35 0.38,0.35 0.01,0 0.02,0 0.04,0 0.16,-0.01 0.41,-0.09 0.77,-0.23 0.39,-0.16 0.62,-0.35 0.69,-0.56 0.14,-0.31 0.28,-0.72 0.41,-1.23 0.13,-0.52 0.19,-0.92 0.17,-1.22 -0.01,-0.27 0,-0.49 0.04,-0.67 0.4,-1.67 0.74,-2.9 0.99,-3.67 0.21,0.04 0.46,0.05 0.75,0.02 0.36,-0.03 0.86,-0.18 1.54,-0.48 0.67,-0.29 1.32,-0.67 1.95,-1.15 0.69,-0.56 1.27,-1.2 1.75,-1.91 0.49,-0.73 0.71,-1.44 0.66,-2.11 -0.01,-0.11 -0.03,-0.23 -0.05,-0.35zm-2.86 0.06c0.59,-0.37 0.88,-0.46 1.02,-0.47 0.02,0 0.04,0 0.05,0 0.16,0 0.23,0.05 0.27,0.1 0.08,0.09 0.13,0.25 0.15,0.46l0 0c0.02,0.31 -0.08,0.7 -0.33,1.15 -0.44,0.91 -1.15,1.79 -2.13,2.63 -0.86,0.73 -1.69,1.17 -2.46,1.3 0.06,-0.16 0.15,-0.38 0.26,-0.68 0.21,-0.52 0.43,-1.04 0.68,-1.55 0.23,-0.49 0.59,-1.03 1.06,-1.61 0.47,-0.58 0.95,-1.02 1.43,-1.33z"/>
     <path class="fil0" d="M188.83 80.74c-0.08,-0.06 -0.16,-0.06 -0.21,-0.05 -0.1,0.01 -0.18,0.07 -0.26,0.2 -0.76,1.38 -1.93,2.47 -3.48,3.25 -0.52,0.26 -1,0.41 -1.41,0.44 -0.34,0.03 -0.6,-0.04 -0.77,-0.19 -0.17,-0.16 -0.26,-0.33 -0.28,-0.51 -0.01,-0.21 0.01,-0.42 0.06,-0.64 0.16,-0.75 0.59,-1.54 1.26,-2.37 0.68,-0.82 1.34,-1.43 1.98,-1.79 0.28,-0.17 0.51,-0.26 0.67,-0.27 0.05,-0.01 0.11,-0.01 0.14,0.02 0.04,0.03 0.05,0.1 0.06,0.15 0.01,0.21 -0.05,0.43 -0.2,0.67 -0.39,0.56 -1.05,1.15 -1.96,1.73 -0.47,0.32 -0.87,0.5 -1.16,0.55 -0.05,0.01 -0.1,0.02 -0.17,0.04 -0.13,0.05 -0.19,0.18 -0.15,0.3 0.02,0.11 0.12,0.35 0.53,0.28 0.58,-0.09 1.28,-0.37 2.07,-0.84 0.8,-0.48 1.38,-1.01 1.7,-1.58 0.22,-0.3 0.32,-0.67 0.29,-1.1 -0.04,-0.42 -0.18,-0.74 -0.42,-0.94 -0.25,-0.2 -0.59,-0.28 -1.02,-0.25 -0.74,0.06 -1.67,0.57 -2.82,1.56 -0.76,0.65 -1.33,1.28 -1.72,1.89 -0.04,0.03 -0.08,0.06 -0.11,0.11 -0.36,0.6 -0.84,1.23 -1.45,1.87 -0.61,0.64 -1.05,1.05 -1.31,1.23 -0.35,0.23 -0.46,0.25 -0.48,0.25 -0.12,0.01 -0.18,-0.03 -0.21,-0.07 -0.06,-0.07 -0.1,-0.2 -0.11,-0.37 -0.02,-0.18 0.01,-0.41 0.09,-0.67 0.34,-1.16 0.9,-2.28 1.68,-3.34 0.38,-0.52 0.61,-0.91 0.7,-1.22 0.09,-0.35 -0.11,-0.48 -0.21,-0.53 -0.14,-0.07 -0.35,-0.09 -0.64,-0.07l-0.75 0.08c-0.39,0.04 -0.85,0.06 -1.39,0.07l0.62 -1.18c0.27,-0.6 0.27,-0.8 0.18,-0.93 -0.05,-0.07 -0.13,-0.11 -0.23,-0.1 -0.11,0.01 -0.21,0.03 -0.3,0.08 -0.07,0.03 -0.24,0.13 -0.51,0.28 -0.28,0.17 -0.6,0.45 -0.95,0.88 -0.36,0.43 -0.57,0.76 -0.63,1.02 -0.07,0.29 -0.03,0.5 0.11,0.63 0.07,0.08 0.17,0.13 0.28,0.16 -0.46,1.05 -1.03,2.06 -1.69,3.01 -0.1,0.16 -0.14,0.28 -0.13,0.37 0,0.07 0.04,0.2 0.21,0.28 0.22,0.11 0.41,-0.13 0.6,-0.41 0.18,-0.28 0.85,-1.37 1.97,-3.26 0.24,-0.01 0.55,0 0.92,0.04 0.5,0.06 0.59,0.19 0.61,0.23l0.07 0.16c-0.01,0.03 -0.05,0.14 -0.22,0.42l-0.13 0.23c-0.04,0.05 -0.1,0.13 -0.19,0.24 -1.21,1.45 -1.77,2.61 -1.69,3.56 0.03,0.48 0.17,0.85 0.4,1.08 0.21,0.22 0.49,0.33 0.84,0.33 0.05,0 0.1,0 0.15,-0.01 0.64,-0.05 1.23,-0.31 1.74,-0.78 0.49,-0.41 1,-0.93 1.5,-1.56 0,0.04 0,0.09 0,0.13 0.03,0.38 0.15,0.7 0.35,0.96 0.44,0.56 1.13,0.84 2.04,0.84 0.12,0 0.24,0 0.37,-0.01 1.25,-0.1 2.51,-0.77 3.74,-1.99 0.63,-0.63 1.14,-1.34 1.52,-2.1 0.06,-0.09 0.09,-0.18 0.08,-0.26 0,-0.06 -0.03,-0.16 -0.17,-0.23z"/>
     <path class="fil0" d="M199.91 78.75c0,-0.11 -0.02,-0.23 -0.05,-0.35 -0.1,-0.51 -0.48,-0.85 -1.13,-1.03 -0.28,-0.07 -0.57,-0.1 -0.84,-0.08 -0.69,0.06 -1.38,0.41 -2.06,1.05 -0.31,0.27 -0.65,0.7 -1.05,1.3 0.2,-0.53 0.37,-0.92 0.5,-1.18 0.27,-0.49 0.39,-0.87 0.37,-1.15 -0.02,-0.28 -0.17,-0.42 -0.29,-0.49 -0.15,-0.1 -0.36,-0.13 -0.63,-0.11 -0.25,0.02 -0.44,0.06 -0.57,0.12 -0.24,0.11 -0.26,0.28 -0.25,0.36 0,0.45 -0.12,1.15 -0.36,2.09 -0.14,0.56 -0.26,0.99 -0.33,1.29 -0.08,0.29 -0.52,1.77 -1.33,4.53 -0.81,2.7 -1.5,4.79 -2.06,6.2 -0.04,0.12 -0.06,0.22 -0.05,0.31 0.02,0.22 0.16,0.35 0.37,0.35 0.01,0 0.03,0 0.04,0 0.16,-0.01 0.42,-0.09 0.78,-0.23 0.39,-0.16 0.61,-0.35 0.68,-0.56 0.14,-0.31 0.28,-0.72 0.41,-1.23 0.14,-0.52 0.19,-0.92 0.18,-1.22 -0.02,-0.27 0,-0.49 0.04,-0.67 0.4,-1.67 0.73,-2.9 0.98,-3.66 0.21,0.03 0.46,0.03 0.75,0.01 0.36,-0.03 0.87,-0.18 1.55,-0.48 0.66,-0.29 1.32,-0.67 1.95,-1.15 0.68,-0.56 1.27,-1.2 1.74,-1.91 0.5,-0.73 0.72,-1.44 0.66,-2.11zm-2.9 -0.29c0.59,-0.37 0.88,-0.46 1.02,-0.47 0.02,0 0.04,0 0.05,0 0.19,0 0.38,0.08 0.41,0.56 0.03,0.31 -0.08,0.7 -0.32,1.15 -0.44,0.91 -1.16,1.79 -2.13,2.63 -0.87,0.73 -1.69,1.17 -2.46,1.3 0.06,-0.16 0.15,-0.38 0.26,-0.68 0.2,-0.52 0.43,-1.04 0.67,-1.54 0.24,-0.5 0.6,-1.04 1.07,-1.62 0.46,-0.58 0.94,-1.02 1.43,-1.33z"/>
     <path class="fil0" d="M220.3 76.1c0.34,-0.27 0.56,-0.54 0.66,-0.83 0.1,-0.27 0.14,-0.52 0.12,-0.73 -0.01,-0.24 -0.16,-0.46 -0.44,-0.67 -0.28,-0.21 -0.7,-0.28 -1.3,-0.24 -0.9,0.07 -1.87,0.48 -2.9,1.22 -1.04,0.74 -1.59,1.55 -1.64,2.39 -0.14,0.55 -0.48,1.24 -1,2.09 -0.01,0.01 -0.01,0.03 -0.02,0.04 -0.75,1.15 -1.82,2.08 -3.18,2.76 -0.53,0.27 -1,0.42 -1.41,0.45 -0.34,0.03 -0.6,-0.04 -0.77,-0.19 -0.17,-0.16 -0.27,-0.33 -0.28,-0.51 -0.02,-0.21 0,-0.42 0.05,-0.65 0.17,-0.74 0.6,-1.53 1.27,-2.36 0.67,-0.83 1.34,-1.43 1.98,-1.79 0.28,-0.17 0.51,-0.26 0.67,-0.28 0.12,0 0.18,0.02 0.19,0.18 0.02,0.21 -0.05,0.43 -0.19,0.67 -0.39,0.56 -1.05,1.14 -1.96,1.73 -0.48,0.31 -0.87,0.5 -1.17,0.55 -0.04,0 -0.09,0.02 -0.16,0.04 -0.14,0.05 -0.19,0.18 -0.15,0.3 0.02,0.11 0.11,0.34 0.53,0.28 0.58,-0.09 1.27,-0.37 2.07,-0.84 0.8,-0.48 1.38,-1.02 1.7,-1.59 0.22,-0.29 0.32,-0.66 0.28,-1.09 -0.03,-0.42 -0.17,-0.74 -0.42,-0.94 -0.24,-0.2 -0.58,-0.28 -1.02,-0.25 -0.74,0.06 -1.66,0.57 -2.82,1.56 -0.75,0.65 -1.32,1.28 -1.72,1.89 -0.04,0.03 -0.07,0.06 -0.11,0.11 -0.35,0.6 -0.84,1.23 -1.44,1.87 -0.61,0.64 -1.05,1.05 -1.31,1.22 -0.35,0.24 -0.46,0.26 -0.48,0.26 -0.08,0.01 -0.14,-0.01 -0.19,-0.05 -0.07,-0.06 -0.12,-0.2 -0.14,-0.39 -0.01,-0.18 0.02,-0.41 0.09,-0.67 0.34,-1.16 0.91,-2.28 1.68,-3.34 0.39,-0.51 0.62,-0.91 0.7,-1.22 0.1,-0.35 -0.11,-0.48 -0.2,-0.53 -0.15,-0.07 -0.36,-0.09 -0.64,-0.07l-0.75 0.08c-0.39,0.03 -0.86,0.05 -1.39,0.06l0.61 -1.17c0.28,-0.6 0.28,-0.8 0.19,-0.93 -0.05,-0.07 -0.14,-0.11 -0.24,-0.1 -0.1,0.01 -0.2,0.03 -0.29,0.08 -0.07,0.03 -0.24,0.13 -0.51,0.28 -0.29,0.17 -0.6,0.45 -0.96,0.88 -0.36,0.43 -0.56,0.76 -0.62,1.02 -0.07,0.29 -0.04,0.5 0.1,0.63 0.08,0.07 0.17,0.13 0.29,0.16 -0.46,1.05 -1.03,2.06 -1.69,3.01 -0.1,0.16 -0.14,0.27 -0.14,0.37 0.01,0.09 0.05,0.2 0.21,0.28 0.22,0.11 0.42,-0.13 0.6,-0.41 0.19,-0.28 0.85,-1.38 1.98,-3.26 0.24,-0.01 0.55,0 0.91,0.04 0.51,0.06 0.6,0.19 0.62,0.23l0.06 0.16c0,0.03 -0.04,0.14 -0.22,0.42l-0.13 0.23c-0.03,0.05 -0.09,0.13 -0.18,0.24 -1.22,1.45 -1.77,2.61 -1.7,3.56 0.09,1.14 0.7,1.41 1.25,1.41 0.05,0 0.1,-0.01 0.14,-0.01 0.65,-0.05 1.23,-0.31 1.74,-0.78 0.5,-0.41 1,-0.93 1.51,-1.56 0,0.04 0,0.09 0,0.13 0.03,0.38 0.14,0.7 0.34,0.96 0.45,0.56 1.13,0.84 2.04,0.84 0.12,0 0.25,0 0.38,-0.01 1.25,-0.1 2.5,-0.77 3.73,-2 0.5,-0.49 0.93,-1.04 1.27,-1.63 0.01,-0.01 0.02,-0.02 0.03,-0.03 0.31,-0.54 0.56,-0.99 0.74,-1.33 0.16,0.19 0.39,0.37 0.7,0.54 0.07,0.04 0.37,0.17 0.6,0.27 0.89,0.38 1.04,0.68 1.05,0.82 0.04,0.53 -0.2,1.09 -0.71,1.65 -0.52,0.58 -1.08,0.99 -1.66,1.22 -0.13,0.05 -0.25,0.08 -0.37,0.09 -0.06,0 -0.15,-0.01 -0.26,-0.12 -0.06,-0.07 0.02,-0.21 0.1,-0.32l0.01 -0.01c0.15,-0.25 0.27,-0.35 0.34,-0.39 0.19,-0.09 0.28,-0.17 0.3,-0.27 0.03,-0.11 0,-0.21 -0.08,-0.28 -0.08,-0.06 -0.18,-0.08 -0.29,-0.03 -0.49,0.25 -0.83,0.5 -1.06,0.76 -0.24,0.34 -0.34,0.57 -0.33,0.74 0.01,0.16 0.06,0.28 0.11,0.33 0.11,0.18 0.32,0.39 0.72,0.39 0.04,0 0.07,0 0.1,-0.01 0.33,-0.02 0.65,-0.09 0.96,-0.19 1.35,-0.41 2.36,-1.05 3,-1.88 0.47,-0.59 0.64,-1.14 0.53,-1.61 -0.04,-0.2 -0.18,-0.4 -0.43,-0.6 -0.22,-0.17 -0.42,-0.31 -0.58,-0.39 -0.16,-0.07 -0.42,-0.19 -0.78,-0.36 -0.36,-0.16 -0.62,-0.27 -0.77,-0.35 -0.3,-0.15 -0.46,-0.32 -0.48,-0.51 -0.02,-0.21 0.05,-0.43 0.2,-0.67 0.41,-0.68 1.02,-1.26 1.81,-1.73 0.79,-0.47 1.46,-0.73 1.99,-0.77l0.12 -0.01c0.2,0.03 0.23,0.13 0.22,0.27 -0.02,0.23 -0.09,0.41 -0.2,0.55 -0.12,0.14 -0.27,0.35 -0.19,0.55l0.02 0.03c0.08,0.1 0.16,0.13 0.22,0.13 0.06,0.01 0.15,0 0.24,-0.07z"/>
     <path class="fil0" d="M248.65 76.08c-0.08,-0.05 -0.16,-0.06 -0.21,-0.05 -0.09,0.01 -0.18,0.08 -0.26,0.2 -0.76,1.38 -1.93,2.47 -3.47,3.25 -0.53,0.26 -1,0.41 -1.41,0.45 -0.35,0.02 -0.61,-0.04 -0.77,-0.2 -0.18,-0.16 -0.27,-0.32 -0.28,-0.51 -0.02,-0.2 0,-0.42 0.05,-0.64 0.17,-0.74 0.59,-1.54 1.26,-2.36 0.68,-0.83 1.34,-1.43 1.98,-1.8 0.29,-0.17 0.51,-0.26 0.67,-0.27 0.13,-0.01 0.19,0.01 0.2,0.18 0.02,0.2 -0.05,0.43 -0.19,0.66 -0.4,0.57 -1.05,1.15 -1.96,1.73 -0.48,0.32 -0.88,0.51 -1.17,0.55 -0.05,0.01 -0.1,0.02 -0.16,0.05 -0.14,0.05 -0.2,0.18 -0.15,0.3 0.02,0.1 0.11,0.34 0.52,0.28 0.58,-0.09 1.28,-0.38 2.08,-0.85 0.8,-0.47 1.37,-1.01 1.7,-1.58 0.22,-0.3 0.31,-0.66 0.28,-1.1 -0.03,-0.42 -0.17,-0.73 -0.42,-0.94 -0.24,-0.2 -0.59,-0.28 -1.02,-0.25 -0.74,0.06 -1.66,0.57 -2.82,1.57 -0.77,0.66 -1.35,1.3 -1.74,1.92 -0.02,0.02 -0.05,0.04 -0.07,0.07 -0.36,0.6 -0.86,1.23 -1.48,1.88 -0.61,0.65 -1.1,1.09 -1.45,1.32 -0.38,0.25 -0.56,0.14 -0.67,0.04 -0.09,-0.09 -0.15,-0.22 -0.16,-0.38 -0.01,-0.2 -0.02,-0.36 -0.01,-0.48 0,-0.3 0.19,-1.1 1.04,-3.2l0.01 -0.04c0.01,-0.02 0.04,-0.13 0.29,-0.61 0.07,-0.15 0.13,-0.28 0.19,-0.4 1.27,-0.24 2.06,-0.42 2.4,-0.54 0.37,-0.14 0.62,-0.27 0.6,-0.48 -0.02,-0.28 -0.4,-0.25 -0.55,-0.23 -0.24,0.01 -0.89,0.11 -2,0.3l0.77 -1.63c0.02,-0.06 0.08,-0.12 0.17,-0.19 0.13,-0.09 0.24,-0.24 0.34,-0.44 0.1,-0.2 0.15,-0.39 0.14,-0.56 -0.02,-0.17 -0.06,-0.3 -0.12,-0.37 -0.15,-0.2 -0.4,-0.29 -0.74,-0.26 -0.35,0.03 -0.54,0.1 -0.63,0.24l-0.07 0.08c-0.04,0.05 -0.07,0.11 -0.12,0.19 -0.04,0.08 -0.07,0.16 -0.1,0.23 -0.03,0.06 -0.08,0.16 -0.14,0.29 -0.07,0.13 -0.13,0.26 -0.17,0.38l-0.9 2.03c-0.02,0.01 -0.04,0.02 -0.05,0.03 -0.71,0.1 -1.09,0.29 -1.19,0.59 -0.09,0.24 -0.01,0.41 0.08,0.5 0.08,0.09 0.23,0.19 0.48,0.17 0.05,-0.01 0.1,-0.01 0.15,-0.02 -0.18,0.41 -0.25,0.58 -0.28,0.65 -0.35,0.63 -0.84,1.41 -1.47,2.33 -0.22,0.28 -0.46,0.55 -0.73,0.83 -0.61,0.65 -1.1,1.09 -1.45,1.32 -0.39,0.26 -0.58,0.15 -0.69,0.05 -0.05,-0.05 -0.15,-0.2 -0.18,-0.67 -0.03,-0.37 0.06,-0.9 0.28,-1.56 0.12,-0.4 0.33,-0.92 0.61,-1.57 0.3,-0.68 0.43,-1.2 0.4,-1.58 -0.03,-0.45 -0.29,-0.69 -0.72,-0.65 -0.39,0.03 -0.84,0.27 -1.4,0.74 -0.52,0.47 -1.16,1.17 -1.89,2.07 -0.47,0.57 -0.89,1.11 -1.25,1.59 0.44,-1.49 0.71,-2.39 0.82,-2.68 0.19,-0.5 0.21,-0.67 0.2,-0.76 -0.01,-0.13 -0.09,-0.36 -0.47,-0.4 -0.23,-0.02 -0.4,-0.02 -0.55,0 -0.17,0.03 -0.32,0.12 -0.42,0.28 -0.08,0.13 -0.13,0.24 -0.16,0.35 -0.02,0.09 -0.04,0.21 -0.05,0.35 -0.01,0.11 -0.04,0.25 -0.09,0.42 -0.05,0.17 -0.18,0.66 -0.4,1.47 -0.02,0.02 -0.04,0.05 -0.07,0.09 -0.75,1.38 -1.92,2.47 -3.47,3.24 -0.53,0.27 -1,0.42 -1.41,0.45 -0.34,0.03 -0.6,-0.04 -0.77,-0.19 -0.17,-0.16 -0.27,-0.33 -0.28,-0.51 -0.02,-0.21 0,-0.43 0.05,-0.65 0.17,-0.74 0.59,-1.53 1.27,-2.36 0.67,-0.83 1.34,-1.43 1.98,-1.79 0.28,-0.17 0.5,-0.26 0.67,-0.28 0.04,0 0.11,0 0.14,0.03 0.04,0.03 0.05,0.1 0.05,0.15 0.02,0.21 -0.05,0.43 -0.19,0.67 -0.39,0.56 -1.05,1.14 -1.96,1.73 -0.48,0.31 -0.88,0.5 -1.17,0.55 -0.04,0 -0.09,0.02 -0.16,0.04 -0.14,0.05 -0.2,0.18 -0.15,0.3 0.02,0.11 0.11,0.34 0.52,0.28 0.58,-0.09 1.28,-0.37 2.08,-0.84 0.8,-0.48 1.38,-1.02 1.7,-1.59 0.22,-0.29 0.32,-0.66 0.28,-1.09 -0.07,-0.85 -0.56,-1.26 -1.44,-1.19 -0.74,0.06 -1.66,0.57 -2.82,1.56 -1.14,0.98 -1.87,1.92 -2.18,2.8 -0.15,0.52 -0.22,0.96 -0.19,1.33 0.03,0.38 0.14,0.7 0.34,0.96 0.45,0.56 1.13,0.84 2.04,0.84 0.12,0 0.25,0 0.38,-0.01 1.25,-0.1 2.5,-0.77 3.73,-2 0.18,-0.17 0.34,-0.36 0.5,-0.54 -0.05,0.18 -0.09,0.36 -0.14,0.53 -0.2,0.73 -0.31,1.13 -0.33,1.22 -0.03,0.1 -0.04,0.18 -0.04,0.24l0.02 0.1 0.05 0.04c0.06,0.05 0.13,0.07 0.23,0.07 0.03,0 0.05,0 0.08,-0.01 0.11,0 0.33,-0.07 1.04,-0.49 0.06,-0.05 0.19,-0.15 1.38,-2.02 0.78,-1.22 1.38,-2.07 1.78,-2.51 0.79,-0.8 1.07,-0.9 1.17,-0.91 0,0.02 -0.01,0.15 -0.23,0.63 -0.17,0.37 -0.36,0.88 -0.58,1.53 -0.13,0.41 -0.22,0.78 -0.25,1.09 -0.04,0.31 -0.04,0.63 -0.02,0.96 0.03,0.36 0.17,0.66 0.43,0.88 0.25,0.23 0.64,0.33 1.19,0.3 0.54,-0.04 1.07,-0.28 1.59,-0.71 0.5,-0.42 1.02,-0.96 1.54,-1.62 0.14,-0.18 0.26,-0.34 0.38,-0.5 -0.13,0.5 -0.18,0.91 -0.15,1.22 0.01,0.16 0.04,0.3 0.08,0.42 0.24,0.55 0.67,0.84 1.24,0.84 0.05,0 0.1,0 0.15,-0.01 0.26,-0.02 0.58,-0.11 0.95,-0.28 0.62,-0.29 1.34,-0.95 2.19,-2.01 0,0.05 -0.01,0.09 0,0.13 0.03,0.38 0.14,0.7 0.34,0.97 0.45,0.55 1.13,0.84 2.04,0.84 0.12,0 0.24,-0.01 0.37,-0.02 1.25,-0.1 2.51,-0.77 3.74,-1.99 0.63,-0.63 1.15,-1.34 1.52,-2.09 0.06,-0.1 0.09,-0.18 0.08,-0.26 0,-0.06 -0.03,-0.17 -0.17,-0.24z"/>
     <path class="fil0" d="M280.54 73.57c-0.15,-0.05 -0.3,0 -0.4,0.15 -0.35,0.6 -0.85,1.23 -1.46,1.88 -0.61,0.64 -1.1,1.09 -1.45,1.31 -0.39,0.25 -0.58,0.15 -0.69,0.05 -0.1,-0.1 -0.15,-0.22 -0.16,-0.38 -0.02,-0.2 -0.02,-0.43 -0.01,-0.68 0.01,-0.25 0.11,-0.71 0.32,-1.36 0.2,-0.66 0.4,-1.17 0.59,-1.51 0.27,-0.5 0.3,-0.65 0.29,-0.75 0,-0.09 -0.05,-0.38 -0.5,-0.34 -0.22,0.02 -0.64,0.17 -1.26,0.47 -0.52,0.25 -1.2,0.79 -2.08,1.66 0.02,-0.04 0.03,-0.07 0.04,-0.11 0.17,-0.46 0.32,-0.86 0.46,-1.18 0.14,-0.34 0.2,-0.66 0.18,-0.94 -0.02,-0.31 -0.13,-0.52 -0.31,-0.61 -0.16,-0.07 -0.32,-0.11 -0.48,-0.09 -0.66,0.05 -1.72,0.98 -3.24,2.84 -0.47,0.57 -0.89,1.11 -1.25,1.6 0.43,-1.49 0.71,-2.39 0.82,-2.69 0.19,-0.49 0.21,-0.66 0.2,-0.75l0 0c-0.01,-0.13 -0.09,-0.35 -0.47,-0.43 -0.25,-0.05 -0.47,-0.03 -0.65,0.05 -0.32,0.14 -0.5,0.48 -0.55,1.05 -0.26,0.6 -0.68,1.35 -1.25,2.23 -0.02,0.03 -0.03,0.07 -0.05,0.1 -0.09,0.13 -0.22,0.31 -0.39,0.54 -0.87,1.07 -1.33,1.32 -1.57,1.34 -0.28,0.02 -0.42,-0.08 -0.47,-0.34 0.61,-1.01 0.89,-1.8 0.84,-2.41 -0.05,-0.66 -0.27,-1.03 -0.66,-1.1 -0.08,0 -0.16,0 -0.23,0.01 0.03,-0.1 0.04,-0.23 0.03,-0.4 -0.03,-0.33 -0.19,-0.76 -0.85,-0.92 -0.16,-0.04 -0.33,-0.05 -0.51,-0.04 -0.67,0.06 -1.36,0.44 -2.05,1.15 -0.43,0.43 -0.8,0.94 -1.09,1.49 -0.15,0.26 -0.27,0.52 -0.37,0.78 -0.01,0.02 -0.03,0.03 -0.04,0.05 -0.61,0.91 -1.2,1.64 -1.76,2.16 -0.56,0.51 -1.29,0.94 -2.17,1.26 -0.4,0.13 -0.78,0.21 -1.12,0.24 -0.31,0.02 -0.54,-0.07 -0.69,-0.27 -0.08,-0.1 -0.13,-0.23 -0.14,-0.39 -0.01,-0.18 0.01,-0.39 0.06,-0.62 0.19,-0.93 0.76,-1.9 1.69,-2.88 0.92,-0.97 1.67,-1.49 2.22,-1.53 0.06,0 0.16,-0.01 0.18,0.24l-0.07 0.42c-0.02,0.08 -0.02,0.25 0.15,0.4 0.06,0.05 0.14,0.07 0.21,0.06 0.14,-0.03 0.25,-0.16 0.38,-0.44 0.15,-0.31 0.22,-0.59 0.2,-0.84 -0.02,-0.27 -0.17,-0.63 -0.8,-0.8 -0.17,-0.03 -0.36,-0.04 -0.54,-0.03 -0.74,0.06 -1.67,0.57 -2.82,1.57 -1.14,0.97 -1.87,1.91 -2.18,2.8 -0.17,0.52 -0.24,1.01 -0.21,1.45 0.04,0.47 0.28,0.88 0.71,1.23 0.37,0.3 0.86,0.44 1.46,0.44 0.1,0 0.21,0 0.31,-0.01 0.26,-0.02 0.53,-0.06 0.83,-0.13 1.01,-0.26 1.89,-0.72 2.62,-1.39 0.41,-0.37 0.81,-0.8 1.19,-1.29 0,0.1 0,0.2 0.01,0.29 0.07,0.84 0.39,1.42 0.97,1.7 0.25,0.16 0.56,0.24 0.91,0.24 0.06,0 0.12,0 0.19,-0.01 0.73,-0.05 1.38,-0.36 1.94,-0.91 0.22,-0.25 0.44,-0.5 0.65,-0.76 0.23,0.28 0.56,0.4 0.96,0.37 0.69,-0.05 1.41,-0.63 2.2,-1.76 0.13,-0.18 0.23,-0.33 0.32,-0.47 0.04,-0.04 0.07,-0.07 0.1,-0.12 -0.57,2.17 -0.72,2.73 -0.75,2.79 -0.04,0.12 -0.06,0.21 -0.06,0.28 0.01,0.1 0.07,0.21 0.31,0.21 0.02,0 0.04,0 0.07,-0.01 0.11,0 0.32,-0.07 1.03,-0.5 0.07,-0.04 0.19,-0.14 1.39,-2.02 0.78,-1.22 1.38,-2.06 1.78,-2.5 0.79,-0.81 1.12,-0.95 1.25,-0.97 -0.01,0.06 -0.07,0.32 -0.63,1.59 -0.44,1.03 -0.66,1.67 -0.67,1.98 0,0.17 0.06,0.29 0.16,0.38 0.13,0.09 0.3,0.12 0.53,0.07 0.38,-0.08 0.63,-0.31 0.76,-0.68l0.38 -0.49c0.33,-0.42 0.77,-0.91 1.32,-1.47 0.24,-0.26 0.54,-0.49 0.87,-0.7 -0.1,0.26 -0.22,0.6 -0.34,1 -0.22,0.72 -0.3,1.44 -0.25,2.14 0.02,0.23 0.08,0.46 0.17,0.69 0.11,0.25 0.34,0.46 0.7,0.63 0.36,0.17 0.89,0.11 1.61,-0.2 0.63,-0.3 1.37,-0.98 2.24,-2.08 0.53,-0.67 0.89,-1.2 1.07,-1.61 0.04,-0.08 0.06,-0.15 0.06,-0.22 -0.01,-0.11 -0.09,-0.19 -0.24,-0.25zm-16.86 2.38c-0.14,0.2 -0.16,0.44 -0.07,0.72l0.04 0.08c-0.27,0.46 -0.59,0.86 -0.95,1.17 -0.37,0.33 -0.71,0.51 -1.03,0.53 -0.29,0.02 -0.49,-0.06 -0.6,-0.24 -0.14,-0.22 -0.21,-0.42 -0.23,-0.59 -0.01,-0.18 -0.01,-0.35 0.01,-0.51 0.08,-0.91 0.48,-1.87 1.18,-2.83 0.69,-0.94 1.27,-1.44 1.73,-1.48 0.02,0 0.04,0 0.05,0 0.18,0 0.22,0.08 0.23,0.21 0.01,0.1 0.03,0.38 0.24,0.46 -0.11,0.16 -0.12,0.35 -0.03,0.54 0.07,0.14 0.12,0.34 0.14,0.61 0.02,0.25 -0.06,0.61 -0.24,1.08 -0.18,0 -0.36,0.08 -0.47,0.25z"/>
    </g>
   </g>
  </g>
 </g>
</svg>
