<?xml version="1.0" encoding="UTF-8"?>
<!DOCTYPE svg PUBLIC "-//W3C//DTD SVG 1.1//EN" "http://www.w3.org/Graphics/SVG/1.1/DTD/svg11.dtd">
<!-- Creator: CorelDRAW 2019 (64-Bit) -->
<svg xmlns="http://www.w3.org/2000/svg" xml:space="preserve" width="1078px" height="245px" version="1.1" style="shape-rendering:geometricPrecision; text-rendering:geometricPrecision; image-rendering:optimizeQuality; fill-rule:evenodd; clip-rule:evenodd"
viewBox="0 0 254.88 58"
 xmlns:xlink="http://www.w3.org/1999/xlink"
 xmlns:xodm="http://www.corel.com/coreldraw/odm/2003">
 <defs>
  <style type="text/css">
   <![CDATA[
    .fil0 {fill:#225FAC;fill-rule:nonzero}
    .fil5 {fill:url(#id0);fill-rule:nonzero}
    .fil1 {fill:url(#id1);fill-rule:nonzero}
    .fil4 {fill:url(#id2);fill-rule:nonzero}
    .fil11 {fill:url(#id3);fill-rule:nonzero}
    .fil3 {fill:url(#id4);fill-rule:nonzero}
    .fil2 {fill:url(#id5);fill-rule:nonzero}
    .fil8 {fill:url(#id6);fill-rule:nonzero}
    .fil10 {fill:url(#id7);fill-rule:nonzero}
    .fil9 {fill:url(#id8);fill-rule:nonzero}
    .fil6 {fill:url(#id9);fill-rule:nonzero}
    .fil7 {fill:url(#id10);fill-rule:nonzero}
   ]]>
  </style>
  <linearGradient id="id0" gradientUnits="userSpaceOnUse" x1="-312.85" y1="-259.08" x2="-312.85" y2="-278.85">
   <stop offset="0" style="stop-opacity:1; stop-color:#251B19"/>
   <stop offset="0.411765" style="stop-opacity:1; stop-color:#251B19"/>
   <stop offset="0.658824" style="stop-opacity:1; stop-color:#444141"/>
   <stop offset="1" style="stop-opacity:1; stop-color:#444141"/>
  </linearGradient>
  <linearGradient id="id1" gradientUnits="userSpaceOnUse" xlink:href="#id0" x1="-373.46" y1="-258.65" x2="-373.46" y2="-286.17">
  </linearGradient>
  <linearGradient id="id2" gradientUnits="userSpaceOnUse" xlink:href="#id0" x1="-334.77" y1="-259.08" x2="-334.77" y2="-279.28">
  </linearGradient>
  <linearGradient id="id3" gradientUnits="objectBoundingBox" xlink:href="#id0" x1="0%" y1="0%" x2="0%" y2="0%">
  </linearGradient>
  <linearGradient id="id4" gradientUnits="userSpaceOnUse" xlink:href="#id0" x1="-1020.5" y1="-257.35" x2="-1020.5" y2="-278.32">
  </linearGradient>
  <linearGradient id="id5" gradientUnits="userSpaceOnUse" xlink:href="#id0" x1="-1123.87" y1="-257.42" x2="-1123.87" y2="-278.4">
  </linearGradient>
  <linearGradient id="id6" gradientUnits="userSpaceOnUse" xlink:href="#id0" x1="-1055.92" y1="-258.65" x2="-1055.92" y2="-285.74">
  </linearGradient>
  <linearGradient id="id7" gradientUnits="objectBoundingBox" xlink:href="#id0" x1="0%" y1="0%" x2="0%" y2="0%">
  </linearGradient>
  <linearGradient id="id8" gradientUnits="userSpaceOnUse" xlink:href="#id0" x1="-275.17" y1="-259.08" x2="-275.17" y2="-279.29">
  </linearGradient>
  <linearGradient id="id9" gradientUnits="userSpaceOnUse" xlink:href="#id0" x1="-298.23" y1="-259.08" x2="-298.23" y2="-278.85">
  </linearGradient>
  <linearGradient id="id10" gradientUnits="userSpaceOnUse" xlink:href="#id0" x1="-295.22" y1="-280.57" x2="-295.22" y2="-285.73">
  </linearGradient>
 </defs>
 <g id="Camada_x0020_1">
  <metadata id="CorelCorpID_0Corel-Layer"/>
  <g id="_2636083852400">
   <g>
    <path class="fil0" d="M0 40.07l3.01 16.73 1.04 0.19c29.57,3.7 48.6,-2.99 58.73,-16.34 3.58,-4.59 2.02,-11.85 2.02,-11.85l-0.92 -5.34c-9.99,15.45 -34.1,22.75 -63.88,16.61z"/>
    <path class="fil0" d="M12.55 14.19c-2.6,3.3 -1.9,7.11 -1.9,7.11l0.99 6.95c7.95,-12.4 27,-18.39 50.65,-13.93l-2.43 -13.57c-23.8,-2.85 -39.13,2.62 -47.31,13.44z"/>
   </g>
   <g>
    <path class="fil1" d="M92.09 23.09c0.52,-0.28 1.3,-0.42 2.28,-0.42 1.79,0 3.71,0.61 4.63,0.89l0.63 0.19 1.24 -6.3 -0.27 -0.06c-1.45,-0.32 -2.97,-0.62 -3.89,-0.74 -1.02,-0.12 -1.96,-0.19 -2.81,-0.19 -2.97,0 -5.09,0.26 -7.18,1.6 -1.92,1.22 -2.97,2.81 -3.43,5.19 -0.54,2.72 0.85,4.89 1.97,6.29 0.07,0.08 0.72,0.9 1.24,1.55 0.74,0.93 1.23,1.54 1.34,1.67 1.52,1.66 1.6,2.49 1.47,3.14 -0.07,0.41 -0.34,0.75 -0.77,1.02 -0.47,0.27 -1.05,0.41 -1.74,0.41 -1.04,0 -2.13,-0.12 -3.22,-0.35 -1.1,-0.23 -2.32,-0.62 -3.64,-1.12l-0.31 -0.13 -1.31 6.95 0.27 0.07c1.22,0.25 2.95,0.59 4.17,0.74 1.15,0.15 2.23,0.23 3.23,0.23 3.39,0 6.11,-0.64 8.08,-1.88 1.95,-1.22 3.01,-2.75 3.68,-5.24 0.61,-2.22 -0.09,-4.34 -2.15,-6.5l-2.24 -2.41c-1.58,-1.57 -2.3,-2.74 -2.15,-3.47 0.1,-0.5 0.38,-0.88 0.88,-1.13z"/>
    <g>
     <path class="fil2" d="M118.28 25.42c-1.21,-1.6 -3.19,-2.45 -5.93,-2.54 -3.23,-0.09 -6.04,0.91 -8.36,2.99 -2.19,1.98 -3.61,4.77 -4.15,8.26 -0.51,3.07 -0.02,5.47 1.45,7.13 1.46,1.67 3.83,2.5 7.07,2.5 0.98,0 2.04,-0.06 3.16,-0.21 0.61,-0.07 1.4,-0.18 2.23,-0.35 1.47,-0.29 1.81,-1.55 1.83,-1.58l1.34 -4.34 -0.49 0.13c-0.88,0.21 -1.76,0.38 -2.58,0.48 -0.84,0.1 -1.65,0.16 -2.45,0.16 -1.49,0 -2.55,-0.25 -3.14,-0.7 -0.56,-0.46 -0.77,-1.14 -0.61,-2.13 0.01,-0.13 0.05,-0.23 0.06,-0.31l11.04 0.04 0.08 -0.27c0.56,-1.81 1.65,-6.34 -0.55,-9.26zm-5.62 5.18l-4.14 0c0.28,-0.84 0.65,-1.52 1.12,-2 0.51,-0.53 1.07,-0.79 1.72,-0.79 0.57,0 0.94,0.21 1.16,0.66 0.23,0.48 0.28,1.19 0.14,2.13z"/>
    </g>
    <g>
     <path class="fil3" d="M222.35 25.42c-1.2,-1.6 -3.19,-2.45 -5.91,-2.54 -3.26,-0.1 -6.06,0.91 -8.38,2.99 -2.2,1.98 -3.59,4.77 -4.16,8.26 -0.49,3.07 -0.01,5.47 1.46,7.13 1.46,1.67 3.84,2.5 7.06,2.5 1,0 2.07,-0.06 3.16,-0.21 0.61,-0.07 1.41,-0.18 2.24,-0.35 1.49,-0.29 1.82,-1.55 1.83,-1.58l1.35 -4.34 -0.5 0.13c-0.87,0.21 -1.76,0.38 -2.58,0.48 -0.84,0.1 -1.66,0.16 -2.44,0.16 -1.49,0 -2.54,-0.25 -3.14,-0.7 -0.58,-0.46 -0.78,-1.14 -0.62,-2.13 0.03,-0.13 0.04,-0.23 0.05,-0.31l11.05 0.04 0.08 -0.27c0.56,-1.81 1.64,-6.34 -0.55,-9.26zm-5.62 5.18l-4.15 0c0.28,-0.84 0.67,-1.52 1.14,-2 0.5,-0.53 1.07,-0.79 1.71,-0.79 0.57,0 0.93,0.21 1.16,0.66 0.23,0.48 0.27,1.19 0.14,2.13z"/>
    </g>
    <path class="fil4" d="M134.95 23c-1.11,0 -2.11,0.23 -3,0.68 -0.63,0.34 -1.26,0.86 -1.89,1.57l0.38 -1.83 -6.89 0 -0.05 0.23c-0.01,0.15 -3.21,16.41 -3.94,19.22l-0.09 0.35 5.88 0 0 0c0.66,-0.01 1.97,-0.38 2.2,-1.66 0.57,-3.09 1.08,-5.55 1.29,-6.51 0.81,-3.57 2.26,-4.68 2.84,-4.99 1.82,-0.98 3.49,-0.72 3.81,-0.67l0.3 0.04 1.63 -5.78 0.08 -0.25 -0.3 -0.09c-0.41,-0.12 -1.25,-0.31 -2.25,-0.31z"/>
    <path class="fil5" d="M154.4 23.42l-6.46 11.57 -1.94 -11.57 -7.11 0 3.51 19.8 6.2 0c1.33,0 2.01,-1.07 2.05,-1.13l10.87 -18.67 -7.12 0 0 0z"/>
    <path class="fil6" d="M163.06 23.4l-4.13 19.82 6.09 0c1.39,0 2.07,-1.07 2.22,-1.65l3.81 -18.17 -7.99 0z"/>
    <polygon class="fil7" points="172.34,16.73 164.54,16.73 163.47,21.89 171.27,21.89 "/>
    <g>
     <path class="fil8" d="M241.9 16.77l-1.35 6.38c-0.3,-0.04 -0.8,-0.12 -1.07,-0.14 -0.41,-0.04 -0.79,-0.05 -1.13,-0.05 -3.45,0 -6.47,1.08 -8.97,3.25 -2.48,2.15 -4.03,5.02 -4.6,8.53 -0.44,2.75 -0.04,4.97 1.15,6.58 1.21,1.62 3.15,2.44 5.71,2.44 1.12,0 2.15,-0.15 3.04,-0.43 0.66,-0.23 1.29,-0.54 1.89,-0.92l-0.17 0.81 5.49 0c0.63,-0.01 1.9,-0.38 2.21,-1.75l0.02 -0.1c3.09,-15.31 4.51,-22.02 5.02,-24.26l0.07 -0.34 -7.31 0 0 0zm-3.38 16.58c-0.31,1.54 -0.81,2.71 -1.48,3.48 -0.64,0.75 -1.44,1.11 -2.41,1.11 -0.81,0 -1.4,-0.32 -1.75,-0.98 -0.38,-0.68 -0.47,-1.69 -0.27,-2.93 0.29,-1.77 0.93,-3.16 1.93,-4.18 0.99,-1.01 2.17,-1.5 3.61,-1.5 0.25,0 0.51,0.02 0.78,0.07 0.19,0.03 0.4,0.08 0.58,0.15l-0.99 4.78z"/>
    </g>
    <path class="fil9" d="M201.87 24.48c-0.82,-0.89 -2.06,-1.36 -3.63,-1.36 -2.95,0 -4.99,1.24 -6.32,2.28 -0.44,-0.89 -1.63,-2.28 -4.53,-2.28 -2.43,0 -4.51,1.14 -5.99,2.26l0.33 -1.96 -7.39 0 -0.05 0.23c-0.54,3.39 -3.95,19.09 -3.99,19.25l-0.07 0.32 5.74 0c0.49,0 1.81,-0.29 2.14,-1.63 0.29,-1.4 1.8,-8.43 2.23,-9.94 0.51,-1.82 1.67,-2.62 2.6,-2.62 0.45,0 0.76,0.12 0.97,0.35 0.32,0.35 0.41,1 0.26,1.93 -0.24,1.45 -2.31,11.48 -2.34,11.59l-0.07 0.32 5.22 0c1.39,0 2.05,-1.07 2.22,-1.65l2.12 -10.27c0.5,-1.37 1.47,-2.27 2.47,-2.27 0.45,0 0.77,0.12 0.96,0.35 0.34,0.35 0.42,1 0.27,1.93 -0.24,1.45 -2.33,11.48 -2.34,11.59l-0.07 0.32 5.17 0c1.38,0 2.06,-1.07 2.22,-1.65l2.81 -13.63 -0.01 -0.21 -0.01 0c0.15,-1.3 -0.17,-2.42 -0.92,-3.25z"/>
    <g>
     <g>
      <path class="fil10" d="M253.85 17.62l-0.35 0 -0.47 -1.12 -0.75 0 0 1.12 -0.3 0 0 -2.59 1.02 0c0.28,0 0.48,0.08 0.62,0.24 0.13,0.15 0.2,0.31 0.2,0.5 0,0.12 -0.04,0.26 -0.1,0.4 -0.08,0.12 -0.21,0.21 -0.39,0.26l0.52 1.19zm-1.57 -1.37l0.68 0c0.18,0 0.31,-0.05 0.4,-0.14 0.1,-0.1 0.13,-0.22 0.13,-0.35 0,-0.14 -0.05,-0.25 -0.13,-0.33 -0.1,-0.07 -0.22,-0.11 -0.36,-0.11l-0.72 0 0 0.93z"/>
      <path class="fil10" d="M253.85 17.62l-0.35 0 -0.47 -1.12 -0.75 0 0 1.12 -0.3 0 0 -2.59 1.02 0c0.28,0 0.48,0.08 0.62,0.24 0.13,0.15 0.2,0.31 0.2,0.5 0,0.12 -0.04,0.26 -0.1,0.4 -0.08,0.12 -0.21,0.21 -0.39,0.26l0.52 1.19zm-1.57 -1.37l0.68 0c0.18,0 0.31,-0.05 0.4,-0.14 0.1,-0.1 0.13,-0.22 0.13,-0.35 0,-0.14 -0.05,-0.25 -0.13,-0.33 -0.1,-0.07 -0.22,-0.11 -0.36,-0.11l-0.72 0 0 0.93z"/>
     </g>
     <path class="fil11" d="M252.8 14.24c-1.14,0 -2.08,0.93 -2.08,2.07 0,1.15 0.94,2.09 2.08,2.09 1.14,0 2.08,-0.94 2.08,-2.09 0,-1.14 -0.94,-2.07 -2.08,-2.07zm0 3.91c-1.01,0 -1.84,-0.82 -1.84,-1.84 0,-1.01 0.83,-1.84 1.84,-1.84 1.02,0 1.85,0.83 1.85,1.84 0,1.02 -0.83,1.84 -1.85,1.84z"/>
     <path class="fil11" d="M252.8 14.24c-1.14,0 -2.08,0.93 -2.08,2.07 0,1.15 0.94,2.09 2.08,2.09 1.14,0 2.08,-0.94 2.08,-2.09 0,-1.14 -0.94,-2.07 -2.08,-2.07zm0 3.91c-1.01,0 -1.84,-0.82 -1.84,-1.84 0,-1.01 0.83,-1.84 1.84,-1.84 1.02,0 1.85,0.83 1.85,1.84 0,1.02 -0.83,1.84 -1.85,1.84z"/>
    </g>
   </g>
  </g>
 </g>
</svg>
